%TF.GenerationSoftware,KiCad,Pcbnew,(6.0.2)*%
%TF.CreationDate,2022-08-25T07:28:03-05:00*%
%TF.ProjectId,REF1714,52454631-3731-4342-9e6b-696361645f70,rev?*%
%TF.SameCoordinates,Original*%
%TF.FileFunction,Copper,L2,Bot*%
%TF.FilePolarity,Positive*%
%FSLAX46Y46*%
G04 Gerber Fmt 4.6, Leading zero omitted, Abs format (unit mm)*
G04 Created by KiCad (PCBNEW (6.0.2)) date 2022-08-25 07:28:03*
%MOMM*%
%LPD*%
G01*
G04 APERTURE LIST*
%TA.AperFunction,ComponentPad*%
%ADD10C,1.200000*%
%TD*%
%TA.AperFunction,SMDPad,CuDef*%
%ADD11R,1.300000X1.250000*%
%TD*%
%TA.AperFunction,ComponentPad*%
%ADD12C,2.580000*%
%TD*%
%TA.AperFunction,SMDPad,CuDef*%
%ADD13R,0.950000X2.250000*%
%TD*%
%TA.AperFunction,SMDPad,CuDef*%
%ADD14R,4.170000X4.120000*%
%TD*%
%TA.AperFunction,ComponentPad*%
%ADD15C,2.180000*%
%TD*%
%TA.AperFunction,ComponentPad*%
%ADD16O,1.800000X2.000000*%
%TD*%
%TA.AperFunction,ComponentPad*%
%ADD17C,1.750000*%
%TD*%
%TA.AperFunction,ComponentPad*%
%ADD18C,2.100000*%
%TD*%
%TA.AperFunction,ComponentPad*%
%ADD19C,1.860000*%
%TD*%
%TA.AperFunction,ViaPad*%
%ADD20C,0.800000*%
%TD*%
%TA.AperFunction,Conductor*%
%ADD21C,0.200000*%
%TD*%
%TA.AperFunction,Conductor*%
%ADD22C,0.500000*%
%TD*%
G04 APERTURE END LIST*
D10*
%TO.P,J1,10*%
%TO.N,N/C*%
X148811000Y-67654000D03*
%TO.P,J1,11*%
X153218000Y-67654000D03*
%TD*%
D11*
%TO.P,C7,3,Pin_3*%
%TO.N,/VCC*%
X165082000Y-106617000D03*
%TO.P,C7,2,Pin_2*%
X165082000Y-108169000D03*
%TO.P,C7,1,Pin_1*%
%TO.N,/GND*%
X165077000Y-109720000D03*
%TD*%
D12*
%TO.P,DrillHoles,1*%
%TO.N,N/C*%
X127221000Y-117246000D03*
%TO.P,DrillHoles,2*%
X125993000Y-69391000D03*
%TO.P,DrillHoles,3*%
X176038000Y-69386000D03*
%TO.P,DrillHoles,4*%
X175285900Y-117048700D03*
%TD*%
D13*
%TO.P,U3,1,GND*%
%TO.N,/GND*%
X138529000Y-88869000D03*
%TO.P,U3,2,CLK*%
%TO.N,/NDS.Clk*%
X140046000Y-88875000D03*
%TO.P,U3,3,N/C*%
%TO.N,unconnected-(U3-Pad3)*%
X141552000Y-88878000D03*
%TO.P,U3,4,CS1*%
%TO.N,/VCC*%
X143059000Y-88876000D03*
%TO.P,U3,5,Reset*%
%TO.N,/NDS.Reset*%
X144565000Y-88869000D03*
%TO.P,U3,6,CS2*%
%TO.N,/NDS.CS2*%
X146074000Y-88872000D03*
%TO.P,U3,7,IRQ*%
%TO.N,/GND*%
X147586000Y-88873000D03*
%TO.P,U3,8,VCC*%
%TO.N,/VCC*%
X149089000Y-88867000D03*
%TO.P,U3,9,D0*%
%TO.N,unconnected-(U3-Pad9)*%
X150560000Y-88869000D03*
%TO.P,U3,10,D1*%
%TO.N,unconnected-(U3-Pad10)*%
X152108000Y-88871000D03*
%TO.P,U3,11,D2*%
%TO.N,unconnected-(U3-Pad11)*%
X153577000Y-88870000D03*
%TO.P,U3,12,D3*%
%TO.N,unconnected-(U3-Pad12)*%
X155044000Y-88870000D03*
%TO.P,U3,13,D4*%
%TO.N,unconnected-(U3-Pad13)*%
X156556000Y-88867000D03*
%TO.P,U3,14,D5*%
%TO.N,unconnected-(U3-Pad14)*%
X158058000Y-88871000D03*
%TO.P,U3,15,D6*%
%TO.N,/NDS.D6*%
X159569000Y-88869000D03*
%TO.P,U3,16,D7*%
%TO.N,/NDS.D7*%
X161075000Y-88865000D03*
%TO.P,U3,17,GND*%
%TO.N,/GND*%
X162582000Y-88871000D03*
D14*
%TO.P,U3,18,Mounting_Bracket*%
X131560000Y-67326000D03*
%TO.P,U3,19,Mounting_Bracket*%
X170564000Y-67205000D03*
D15*
%TO.P,U3,20*%
%TO.N,N/C*%
X135516000Y-81730000D03*
%TO.P,U3,21*%
X166590000Y-81734000D03*
%TD*%
D16*
%TO.P,SW1,4,4*%
%TO.N,/GND*%
X141637000Y-68599000D03*
D17*
%TO.P,SW1,3,3*%
X140278000Y-66491000D03*
%TO.P,SW1,2,2*%
%TO.N,/Button*%
X135711000Y-66809000D03*
D16*
%TO.P,SW1,1,1*%
%TO.N,unconnected-(SW1-Pad1)*%
X134808000Y-69065000D03*
%TD*%
D18*
%TO.P,J2,1,A*%
%TO.N,/GND*%
X163254000Y-70184000D03*
%TO.P,J2,2,B*%
%TO.N,/Switch*%
X166198000Y-70421000D03*
%TO.P,J2,3,C*%
%TO.N,unconnected-(J2-Pad3)*%
X169095000Y-70697000D03*
%TO.P,J2,4,Case_GND*%
%TO.N,unconnected-(J2-Pad4)*%
X159809000Y-69863000D03*
%TO.P,J2,5,Case_GND*%
%TO.N,unconnected-(J2-Pad5)*%
X172509200Y-70935000D03*
%TD*%
D19*
%TO.P,J4,32,GND*%
%TO.N,/GND*%
X127844500Y-75079000D03*
%TO.P,J4,31,/REQ*%
%TO.N,/REQ*%
X129348000Y-73572000D03*
%TO.P,J4,30,/CS.SRAM*%
%TO.N,/CS.SRAM*%
X130863000Y-75087000D03*
%TO.P,J4,29,A23*%
%TO.N,/A23*%
X132370000Y-73572000D03*
%TO.P,J4,28,A22*%
%TO.N,/A22*%
X133877000Y-75079000D03*
%TO.P,J4,27,A21*%
%TO.N,/A21*%
X135384000Y-73572000D03*
%TO.P,J4,26,A20*%
%TO.N,/A20*%
X136929000Y-75077000D03*
%TO.P,J4,25,A19*%
%TO.N,/A19*%
X138480000Y-73574000D03*
%TO.P,J4,24,A18*%
%TO.N,/A18*%
X139871000Y-75079000D03*
%TO.P,J4,23,A17*%
%TO.N,/A17*%
X141415000Y-73569000D03*
%TO.P,J4,22,A16*%
%TO.N,/A16*%
X142848000Y-75078000D03*
%TO.P,J4,21,AD15*%
%TO.N,/AD15*%
X144393000Y-73570000D03*
%TO.P,J4,20,AD14*%
%TO.N,/AD14*%
X145861000Y-75080000D03*
%TO.P,J4,19,AD13*%
%TO.N,/AD13*%
X147409000Y-73572000D03*
%TO.P,J4,18,AD12*%
%TO.N,/AD12*%
X148878000Y-75078000D03*
%TO.P,J4,17,AD11*%
%TO.N,/AD11*%
X150423000Y-73571000D03*
%TO.P,J4,16,AD10*%
%TO.N,/AD10*%
X151893000Y-75080000D03*
%TO.P,J4,15,AD9*%
%TO.N,/AD9*%
X153444000Y-73570000D03*
%TO.P,J4,14,AD8*%
%TO.N,/AD8*%
X154830000Y-75079000D03*
%TO.P,J4,13,AD7*%
%TO.N,/AD7*%
X156379800Y-73570900D03*
%TO.P,J4,12,AD6*%
%TO.N,/AD6*%
X157844000Y-75079000D03*
%TO.P,J4,11,AD5*%
%TO.N,/AD5*%
X159396100Y-73570900D03*
%TO.P,J4,10,AD4*%
%TO.N,/AD4*%
X160904200Y-75079000D03*
%TO.P,J4,9,AD3*%
%TO.N,/AD3*%
X162453000Y-73572000D03*
%TO.P,J4,8,AD2*%
%TO.N,/AD2*%
X163879000Y-75078000D03*
%TO.P,J4,7,AD1*%
%TO.N,/AD1*%
X165428600Y-73570900D03*
%TO.P,J4,6,AD0*%
%TO.N,/AD0*%
X166897000Y-75079000D03*
%TO.P,J4,5,/CS.ROM*%
%TO.N,/CS.Rom.Game*%
X168443000Y-73571000D03*
%TO.P,J4,4,/RD*%
%TO.N,/Rd_Game*%
X169913000Y-75077000D03*
%TO.P,J4,3,/WR*%
%TO.N,/Write*%
X171461100Y-73570900D03*
%TO.P,J4,2,Clock*%
%TO.N,unconnected-(J4-Pad2)*%
X172929500Y-75079000D03*
%TO.P,J4,1,+3.3V/+5V*%
%TO.N,/VCC*%
X174476000Y-73571000D03*
%TD*%
D20*
%TO.N,/CS.SRAM*%
X170103100Y-119573000D03*
%TO.N,/REQ*%
X171191800Y-119773000D03*
%TO.N,/A16*%
X165190000Y-111699600D03*
%TO.N,/A17*%
X162977500Y-118148200D03*
X131140500Y-92069400D03*
%TO.N,/A18*%
X163500700Y-119039500D03*
X128171500Y-96973200D03*
%TO.N,/A19*%
X165359500Y-112699800D03*
%TO.N,/A20*%
X165843200Y-119003600D03*
%TO.N,/A21*%
X167055700Y-119735400D03*
%TO.N,/A22*%
X166030000Y-117049300D03*
%TO.N,/A23*%
X167226700Y-117284000D03*
%TO.N,/Button*%
X139916900Y-95814400D03*
X167177500Y-113783800D03*
X133019800Y-85637400D03*
%TO.N,/Switch*%
X175087600Y-92536500D03*
X172625900Y-109128500D03*
%TO.N,/Write*%
X150470700Y-84971400D03*
X170603600Y-109755500D03*
%TO.N,/CS.Rom.Sys*%
X134043900Y-121956000D03*
X169531800Y-109829400D03*
%TO.N,/Rd_Sys*%
X139821700Y-114803200D03*
X155817200Y-112051800D03*
%TO.N,/CS.Rom.Game*%
X159141800Y-93652000D03*
X161855900Y-101209600D03*
%TO.N,/Rd_Game*%
X173376200Y-89351900D03*
X166432400Y-107337400D03*
%TO.N,/Cy.P1-0*%
X166918900Y-103452600D03*
X171672500Y-88966800D03*
%TO.N,/Cy.P1-2*%
X162828100Y-94400000D03*
X166911200Y-101856100D03*
%TO.N,/Cy.P1-3*%
X166728400Y-89428400D03*
X170020400Y-101735600D03*
%TO.N,/Cy.P1-1*%
X166084100Y-90237800D03*
X170528900Y-99846700D03*
%TO.N,/NDS.D7*%
X169807300Y-102745100D03*
%TO.N,/NDS.D6*%
X171527400Y-101582900D03*
%TO.N,/NDS.CS2*%
X147480700Y-90915300D03*
X149031900Y-91786900D03*
X163569900Y-103143800D03*
%TO.N,/NDS.Reset*%
X144943900Y-90991900D03*
X145823600Y-97311000D03*
X169354200Y-113872900D03*
%TO.N,/NDS.Clk*%
X164670200Y-104445900D03*
%TO.N,/Cy.D+*%
X169814500Y-77782000D03*
X169617300Y-72398300D03*
%TO.N,/Cy.D-*%
X173570800Y-68295900D03*
X166129600Y-83448900D03*
%TO.N,/USB.VBUS*%
X167931400Y-83185000D03*
X177132700Y-73144300D03*
%TO.N,/SST.A13*%
X145989600Y-109878000D03*
X139890500Y-109878000D03*
X140011400Y-101320200D03*
X130440400Y-93052700D03*
X138659600Y-83418700D03*
X148047400Y-85553400D03*
X149230200Y-86366200D03*
X155395800Y-86366200D03*
X155395800Y-97126500D03*
X159837600Y-102439600D03*
%TO.N,/SST.A11*%
X146364400Y-108153800D03*
X150157200Y-107355600D03*
%TO.N,/SST.WE*%
X145633300Y-101649400D03*
X141648500Y-101378900D03*
X141648500Y-97433800D03*
X171188800Y-114891700D03*
X173329300Y-115198700D03*
X176627200Y-115198700D03*
X172730500Y-99177500D03*
X167218000Y-93997000D03*
X165201600Y-96013400D03*
X156234100Y-92526700D03*
%TO.N,/SST.A18*%
X151022400Y-111280700D03*
X143406900Y-111710500D03*
X143406900Y-104514000D03*
X146395700Y-104514000D03*
%TO.N,/SST.A17*%
X145695100Y-105779800D03*
X153628100Y-109768500D03*
%TO.N,/SST.A0*%
X135039100Y-88548500D03*
X155711800Y-100463600D03*
%TO.N,/SST.CE*%
X145575800Y-81594700D03*
X157906400Y-81433000D03*
%TO.N,/SST.OE*%
X142958700Y-82201600D03*
X156934200Y-83117800D03*
%TO.N,/AD0*%
X155879000Y-82140000D03*
X142930200Y-83201800D03*
X144545700Y-102152400D03*
X132436700Y-95373500D03*
X144545700Y-109143900D03*
X153651600Y-110847800D03*
%TO.N,/AD8*%
X135266900Y-97352600D03*
X147816000Y-121434800D03*
X124798800Y-103536500D03*
%TO.N,/AD1*%
X137629500Y-109173500D03*
X146942300Y-86437400D03*
X153644400Y-111848000D03*
X143832400Y-114597000D03*
X129251200Y-103151600D03*
%TO.N,/AD9*%
X134919800Y-99153000D03*
X156922400Y-113393200D03*
X130263200Y-102317500D03*
%TO.N,/AD2*%
X143717900Y-81370000D03*
X149344500Y-112871000D03*
X130379500Y-104148600D03*
%TO.N,/AD10*%
X144422300Y-82079800D03*
X155197400Y-118996700D03*
X130655700Y-106423600D03*
%TO.N,/AD3*%
X140066900Y-112561400D03*
X153661300Y-80443000D03*
X147979500Y-113875800D03*
X129555900Y-105442500D03*
%TO.N,/AD11*%
X157522300Y-118217500D03*
X134137100Y-103813900D03*
X131929200Y-103978200D03*
%TO.N,/VCC*%
X163777000Y-97743900D03*
X172189900Y-110115600D03*
X159686100Y-101239600D03*
X142298600Y-91756300D03*
X170605700Y-107317800D03*
%TO.N,/AD4*%
X141638800Y-113462900D03*
X129792600Y-107019500D03*
X146722700Y-114794500D03*
%TO.N,/AD12*%
X129116800Y-107792100D03*
X156886200Y-119419500D03*
X132283400Y-109036100D03*
%TO.N,/AD5*%
X126680000Y-108063200D03*
X146639600Y-118995400D03*
X133722500Y-113582600D03*
%TO.N,/AD13*%
X130834300Y-110732600D03*
X155458800Y-121118600D03*
%TO.N,/AD6*%
X148496400Y-118563900D03*
X131314500Y-111672500D03*
X132898900Y-112825400D03*
%TO.N,/AD14*%
X130636300Y-96012100D03*
X126687200Y-109168400D03*
X156775000Y-121867800D03*
%TO.N,/AD7*%
X145355600Y-121923900D03*
X131241000Y-116460700D03*
%TO.N,/AD15*%
X129936100Y-97679500D03*
X158011400Y-120989400D03*
X126419800Y-110231300D03*
%TO.N,/GND*%
X168227000Y-113786500D03*
X146392000Y-93287600D03*
X158124800Y-116386200D03*
X161468900Y-118960200D03*
X174562000Y-121953900D03*
X126798800Y-115313600D03*
X153447800Y-113655400D03*
X171764900Y-87702700D03*
X175088500Y-90081000D03*
X170330000Y-95228100D03*
X135401700Y-85149700D03*
X171962800Y-119088800D03*
%TO.N,/SST.A16*%
X128805800Y-115128900D03*
X137583500Y-119808600D03*
%TD*%
D21*
%TO.N,/CS.SRAM*%
X169240600Y-120435500D02*
X170103100Y-119573000D01*
X165710300Y-120435500D02*
X169240600Y-120435500D01*
X164734000Y-119459200D02*
X165710300Y-120435500D01*
X164734000Y-117100700D02*
X164734000Y-119459200D01*
X160929300Y-113296000D02*
X164734000Y-117100700D01*
X160929300Y-113177100D02*
X160929300Y-113296000D01*
X147763800Y-100011600D02*
X160929300Y-113177100D01*
X144705200Y-100011600D02*
X147763800Y-100011600D01*
X144513500Y-99819900D02*
X144705200Y-100011600D01*
X140469600Y-99819900D02*
X144513500Y-99819900D01*
X130649200Y-89999500D02*
X140469600Y-99819900D01*
X130649200Y-75300800D02*
X130649200Y-89999500D01*
X130863000Y-75087000D02*
X130649200Y-75300800D01*
%TO.N,/REQ*%
X170129200Y-120835600D02*
X171191800Y-119773000D01*
X165544600Y-120835600D02*
X170129200Y-120835600D01*
X164333900Y-119624900D02*
X165544600Y-120835600D01*
X164333900Y-117810400D02*
X164333900Y-119624900D01*
X160529200Y-114005700D02*
X164333900Y-117810400D01*
X160529200Y-113342800D02*
X160529200Y-114005700D01*
X147598100Y-100411700D02*
X160529200Y-113342800D01*
X144539500Y-100411700D02*
X147598100Y-100411700D01*
X144347800Y-100220000D02*
X144539500Y-100411700D01*
X140304000Y-100220000D02*
X144347800Y-100220000D01*
X129348000Y-89264000D02*
X140304000Y-100220000D01*
X129348000Y-73572000D02*
X129348000Y-89264000D01*
%TO.N,/A16*%
X142848000Y-76713400D02*
X142848000Y-75078000D01*
X134701600Y-84859800D02*
X142848000Y-76713400D01*
X134701600Y-86998800D02*
X134701600Y-84859800D01*
X135850300Y-88147500D02*
X134701600Y-86998800D01*
X135850300Y-88551700D02*
X135850300Y-88147500D01*
X141466600Y-94168000D02*
X135850300Y-88551700D01*
X150236900Y-94168000D02*
X141466600Y-94168000D01*
X155832400Y-99763500D02*
X150236900Y-94168000D01*
X156001800Y-99763500D02*
X155832400Y-99763500D01*
X156411900Y-100173600D02*
X156001800Y-99763500D01*
X156411900Y-102921500D02*
X156411900Y-100173600D01*
X165190000Y-111699600D02*
X156411900Y-102921500D01*
%TO.N,/A17*%
X131539600Y-92069400D02*
X131140500Y-92069400D01*
X140090300Y-100620100D02*
X131539600Y-92069400D01*
X144182100Y-100620100D02*
X140090300Y-100620100D01*
X144511200Y-100949200D02*
X144182100Y-100620100D01*
X147569800Y-100949200D02*
X144511200Y-100949200D01*
X160129100Y-113508500D02*
X147569800Y-100949200D01*
X160129100Y-115299800D02*
X160129100Y-113508500D01*
X162977500Y-118148200D02*
X160129100Y-115299800D01*
%TO.N,/A18*%
X162869200Y-119039500D02*
X163500700Y-119039500D01*
X157735300Y-113905600D02*
X162869200Y-119039500D01*
X157735300Y-111680500D02*
X157735300Y-113905600D01*
X149068400Y-103013600D02*
X157735300Y-111680500D01*
X140095500Y-103013600D02*
X149068400Y-103013600D01*
X135534700Y-98452800D02*
X140095500Y-103013600D01*
X134811300Y-98452800D02*
X135534700Y-98452800D01*
X133331700Y-96973200D02*
X134811300Y-98452800D01*
X128171500Y-96973200D02*
X133331700Y-96973200D01*
%TO.N,/A19*%
X138480000Y-76166400D02*
X138480000Y-73574000D01*
X134109900Y-80536500D02*
X138480000Y-76166400D01*
X134109900Y-88609700D02*
X134109900Y-80536500D01*
X141134100Y-95633900D02*
X134109900Y-88609700D01*
X148117100Y-95633900D02*
X141134100Y-95633900D01*
X165183000Y-112699800D02*
X148117100Y-95633900D01*
X165359500Y-112699800D02*
X165183000Y-112699800D01*
%TO.N,/A20*%
X167118000Y-119003600D02*
X165843200Y-119003600D01*
X168326900Y-117794700D02*
X167118000Y-119003600D01*
X168326900Y-116828300D02*
X168326900Y-117794700D01*
X166790400Y-115291800D02*
X168326900Y-116828300D01*
X165209900Y-115291800D02*
X166790400Y-115291800D01*
X162529700Y-112611600D02*
X165209900Y-115291800D01*
X162529700Y-112485300D02*
X162529700Y-112611600D01*
X148455600Y-98411200D02*
X162529700Y-112485300D01*
X145368000Y-98411200D02*
X148455600Y-98411200D01*
X145105300Y-98148500D02*
X145368000Y-98411200D01*
X141162400Y-98148500D02*
X145105300Y-98148500D01*
X132319700Y-89305800D02*
X141162400Y-98148500D01*
X132319700Y-80080000D02*
X132319700Y-89305800D01*
X136929000Y-75470700D02*
X132319700Y-80080000D01*
X136929000Y-75077000D02*
X136929000Y-75470700D01*
%TO.N,/A21*%
X165576000Y-119735400D02*
X167055700Y-119735400D01*
X165134100Y-119293500D02*
X165576000Y-119735400D01*
X165134100Y-118713700D02*
X165134100Y-119293500D01*
X165627200Y-118220600D02*
X165134100Y-118713700D01*
X167280300Y-118220600D02*
X165627200Y-118220600D01*
X167926800Y-117574100D02*
X167280300Y-118220600D01*
X167926800Y-116994000D02*
X167926800Y-117574100D01*
X166766300Y-115833500D02*
X167926800Y-116994000D01*
X165185900Y-115833500D02*
X166766300Y-115833500D01*
X162129600Y-112777200D02*
X165185900Y-115833500D01*
X162129600Y-112651000D02*
X162129600Y-112777200D01*
X148289900Y-98811300D02*
X162129600Y-112651000D01*
X145202300Y-98811300D02*
X148289900Y-98811300D01*
X144939600Y-98548600D02*
X145202300Y-98811300D01*
X140955200Y-98548600D02*
X144939600Y-98548600D01*
X131919600Y-89513000D02*
X140955200Y-98548600D01*
X131919600Y-79582900D02*
X131919600Y-89513000D01*
X135384000Y-76118500D02*
X131919600Y-79582900D01*
X135384000Y-73572000D02*
X135384000Y-76118500D01*
%TO.N,/A22*%
X165814300Y-117049300D02*
X166030000Y-117049300D01*
X161729500Y-112964500D02*
X165814300Y-117049300D01*
X161729500Y-112845500D02*
X161729500Y-112964500D01*
X148095400Y-99211400D02*
X161729500Y-112845500D01*
X145036600Y-99211400D02*
X148095400Y-99211400D01*
X144774000Y-98948800D02*
X145036600Y-99211400D01*
X140736400Y-98948800D02*
X144774000Y-98948800D01*
X131507000Y-89719400D02*
X140736400Y-98948800D01*
X131507000Y-78413800D02*
X131507000Y-89719400D01*
X133877000Y-76043800D02*
X131507000Y-78413800D01*
X133877000Y-75079000D02*
X133877000Y-76043800D01*
%TO.N,/A23*%
X166761300Y-117749400D02*
X167226700Y-117284000D01*
X165740100Y-117749400D02*
X166761300Y-117749400D01*
X165329900Y-117339200D02*
X165740100Y-117749400D01*
X165329900Y-117130800D02*
X165329900Y-117339200D01*
X161329400Y-113130300D02*
X165329900Y-117130800D01*
X161329400Y-113011400D02*
X161329400Y-113130300D01*
X147929500Y-99611500D02*
X161329400Y-113011400D01*
X144870900Y-99611500D02*
X147929500Y-99611500D01*
X144643700Y-99384300D02*
X144870900Y-99611500D01*
X140599800Y-99384300D02*
X144643700Y-99384300D01*
X131098200Y-89882700D02*
X140599800Y-99384300D01*
X131098200Y-78256700D02*
X131098200Y-89882700D01*
X132370000Y-76984900D02*
X131098200Y-78256700D01*
X132370000Y-73572000D02*
X132370000Y-76984900D01*
%TO.N,/Button*%
X165445000Y-113783800D02*
X167177500Y-113783800D01*
X163730100Y-112068900D02*
X165445000Y-113783800D01*
X163730100Y-111988100D02*
X163730100Y-112068900D01*
X148176100Y-96434100D02*
X163730100Y-111988100D01*
X140536600Y-96434100D02*
X148176100Y-96434100D01*
X139916900Y-95814400D02*
X140536600Y-96434100D01*
X133019800Y-88917300D02*
X139916900Y-95814400D01*
X133019800Y-85637400D02*
X133019800Y-88917300D01*
%TO.N,/Switch*%
X175087600Y-106666800D02*
X172625900Y-109128500D01*
X175087600Y-92536500D02*
X175087600Y-106666800D01*
%TO.N,/Write*%
X162485900Y-84971400D02*
X150470700Y-84971400D01*
X164574000Y-82883300D02*
X162485900Y-84971400D01*
X171733600Y-110885500D02*
X170603600Y-109755500D01*
X172487000Y-110885500D02*
X171733600Y-110885500D01*
X175825000Y-107547500D02*
X172487000Y-110885500D01*
X175825000Y-89820400D02*
X175825000Y-107547500D01*
X170165100Y-84160500D02*
X175825000Y-89820400D01*
X165851200Y-84160500D02*
X170165100Y-84160500D01*
X164574000Y-82883300D02*
X165851200Y-84160500D01*
X164574000Y-81145600D02*
X164574000Y-82883300D01*
X168637700Y-77081900D02*
X164574000Y-81145600D01*
X169683700Y-77081900D02*
X168637700Y-77081900D01*
X171461100Y-75304500D02*
X169683700Y-77081900D01*
X171461100Y-73570900D02*
X171461100Y-75304500D01*
%TO.N,/CS.Rom.Sys*%
X172609500Y-112907100D02*
X169531800Y-109829400D01*
X172609500Y-118745400D02*
X172609500Y-112907100D01*
X172662900Y-118798800D02*
X172609500Y-118745400D01*
X172662900Y-120361100D02*
X172662900Y-118798800D01*
X170398700Y-122625300D02*
X172662900Y-120361100D01*
X134713200Y-122625300D02*
X170398700Y-122625300D01*
X134043900Y-121956000D02*
X134713200Y-122625300D01*
%TO.N,/Rd_Sys*%
X140315700Y-115297200D02*
X139821700Y-114803200D01*
X145590300Y-115297200D02*
X140315700Y-115297200D01*
X146187800Y-115894700D02*
X145590300Y-115297200D01*
X149345800Y-115894700D02*
X146187800Y-115894700D01*
X152692300Y-112548200D02*
X149345800Y-115894700D01*
X155320800Y-112548200D02*
X152692300Y-112548200D01*
X155817200Y-112051800D02*
X155320800Y-112548200D01*
%TO.N,/CS.Rom.Game*%
X159141800Y-98495500D02*
X161855900Y-101209600D01*
X159141800Y-93652000D02*
X159141800Y-98495500D01*
%TO.N,/Rd_Game*%
X173877300Y-89853000D02*
X173376200Y-89351900D01*
X173877300Y-100932600D02*
X173877300Y-89853000D01*
X167472500Y-107337400D02*
X173877300Y-100932600D01*
X166432400Y-107337400D02*
X167472500Y-107337400D01*
%TO.N,/Cy.P1-0*%
X173430800Y-90725100D02*
X171672500Y-88966800D01*
X173430800Y-100720400D02*
X173430800Y-90725100D01*
X170297300Y-103853900D02*
X173430800Y-100720400D01*
X167320200Y-103853900D02*
X170297300Y-103853900D01*
X166918900Y-103452600D02*
X167320200Y-103853900D01*
%TO.N,/Cy.P1-2*%
X162828100Y-94946500D02*
X162828100Y-94400000D01*
X166911200Y-99029600D02*
X162828100Y-94946500D01*
X166911200Y-101856100D02*
X166911200Y-99029600D01*
%TO.N,/Cy.P1-3*%
X166798800Y-89498800D02*
X166728400Y-89428400D01*
X166798800Y-93422600D02*
X166798800Y-89498800D01*
X166512400Y-93709000D02*
X166798800Y-93422600D01*
X166512400Y-94281600D02*
X166512400Y-93709000D01*
X171272800Y-99042000D02*
X166512400Y-94281600D01*
X171272800Y-100483200D02*
X171272800Y-99042000D01*
X170020400Y-101735600D02*
X171272800Y-100483200D01*
%TO.N,/Cy.P1-1*%
X166084100Y-94419100D02*
X166084100Y-90237800D01*
X170528900Y-98863900D02*
X166084100Y-94419100D01*
X170528900Y-99846700D02*
X170528900Y-98863900D01*
%TO.N,/NDS.D7*%
X161075000Y-88865000D02*
X161075000Y-90290100D01*
X168431100Y-97646200D02*
X161075000Y-90290100D01*
X168431100Y-101368900D02*
X168431100Y-97646200D01*
X169807300Y-102745100D02*
X168431100Y-101368900D01*
%TO.N,/NDS.D6*%
X171527400Y-102057800D02*
X171527400Y-101582900D01*
X170139900Y-103445300D02*
X171527400Y-102057800D01*
X169517500Y-103445300D02*
X170139900Y-103445300D01*
X167768500Y-101696300D02*
X169517500Y-103445300D01*
X167768500Y-97549500D02*
X167768500Y-101696300D01*
X160513100Y-90294100D02*
X167768500Y-97549500D01*
X159569000Y-90294100D02*
X160513100Y-90294100D01*
X159569000Y-88869000D02*
X159569000Y-90294100D01*
%TO.N,/NDS.CS2*%
X146074000Y-88872000D02*
X146074000Y-90297100D01*
X146862500Y-90297100D02*
X147480700Y-90915300D01*
X146074000Y-90297100D02*
X146862500Y-90297100D01*
X156208300Y-98963300D02*
X149031900Y-91786900D01*
X156333200Y-98963300D02*
X156208300Y-98963300D01*
X157224200Y-99854300D02*
X156333200Y-98963300D01*
X157224200Y-100868300D02*
X157224200Y-99854300D01*
X159499700Y-103143800D02*
X157224200Y-100868300D01*
X163569900Y-103143800D02*
X159499700Y-103143800D01*
%TO.N,/NDS.Reset*%
X144565000Y-90613000D02*
X144943900Y-90991900D01*
X144565000Y-88869000D02*
X144565000Y-90613000D01*
X168740400Y-114486700D02*
X169354200Y-113872900D01*
X165536600Y-114486700D02*
X168740400Y-114486700D01*
X163330000Y-112280100D02*
X165536600Y-114486700D01*
X163330000Y-112153800D02*
X163330000Y-112280100D01*
X148487200Y-97311000D02*
X163330000Y-112153800D01*
X145823600Y-97311000D02*
X148487200Y-97311000D01*
%TO.N,/NDS.Clk*%
X140046000Y-88875000D02*
X140046000Y-90300100D01*
X140046000Y-90550500D02*
X140046000Y-90300100D01*
X141987300Y-92491800D02*
X140046000Y-90550500D01*
X149126500Y-92491800D02*
X141987300Y-92491800D01*
X155998100Y-99363400D02*
X149126500Y-92491800D01*
X156167500Y-99363400D02*
X155998100Y-99363400D01*
X156812000Y-100007900D02*
X156167500Y-99363400D01*
X156812000Y-101042700D02*
X156812000Y-100007900D01*
X160215200Y-104445900D02*
X156812000Y-101042700D01*
X164670200Y-104445900D02*
X160215200Y-104445900D01*
%TO.N,/Cy.D+*%
X169674900Y-72340700D02*
X169617300Y-72398300D01*
X174992500Y-72340700D02*
X169674900Y-72340700D01*
X175706200Y-73054400D02*
X174992500Y-72340700D01*
X175706200Y-74130000D02*
X175706200Y-73054400D01*
X172054200Y-77782000D02*
X175706200Y-74130000D01*
X169814500Y-77782000D02*
X172054200Y-77782000D01*
%TO.N,/Cy.D-*%
X174193900Y-68919000D02*
X173570800Y-68295900D01*
X174193900Y-70976400D02*
X174193900Y-68919000D01*
X176106300Y-72888800D02*
X174193900Y-70976400D01*
X176106300Y-74295700D02*
X176106300Y-72888800D01*
X171100100Y-79301900D02*
X176106300Y-74295700D01*
X167054200Y-79301900D02*
X171100100Y-79301900D01*
X165199800Y-81156300D02*
X167054200Y-79301900D01*
X165199800Y-82519100D02*
X165199800Y-81156300D01*
X166129600Y-83448900D02*
X165199800Y-82519100D01*
D22*
%TO.N,/USB.VBUS*%
X177132700Y-74047300D02*
X177132700Y-73144300D01*
X167995000Y-83185000D02*
X177132700Y-74047300D01*
X167931400Y-83185000D02*
X167995000Y-83185000D01*
D21*
%TO.N,/SST.A13*%
X149230200Y-86366200D02*
X155395800Y-86366200D01*
X139890500Y-109878000D02*
X145989600Y-109878000D01*
X158059200Y-99789900D02*
X155395800Y-97126500D01*
X158059200Y-100661200D02*
X158059200Y-99789900D01*
X159837600Y-102439600D02*
X158059200Y-100661200D01*
X140794300Y-85553400D02*
X138659600Y-83418700D01*
X148047400Y-85553400D02*
X140794300Y-85553400D01*
X131957100Y-93052700D02*
X130440400Y-93052700D01*
X140011400Y-101107000D02*
X131957100Y-93052700D01*
X140011400Y-101320200D02*
X140011400Y-101107000D01*
%TO.N,/SST.A11*%
X149359000Y-108153800D02*
X146364400Y-108153800D01*
X150157200Y-107355600D02*
X149359000Y-108153800D01*
%TO.N,/SST.WE*%
X176627200Y-115198700D02*
X173329300Y-115198700D01*
X167550000Y-93997000D02*
X167218000Y-93997000D01*
X172730500Y-99177500D02*
X167550000Y-93997000D01*
X165201500Y-96013400D02*
X165201600Y-96013400D01*
X165201500Y-95781200D02*
X165201500Y-96013400D01*
X161947000Y-92526700D02*
X165201500Y-95781200D01*
X156234100Y-92526700D02*
X161947000Y-92526700D01*
X145362800Y-101378900D02*
X145633300Y-101649400D01*
X141648500Y-101378900D02*
X145362800Y-101378900D01*
X165375700Y-114891700D02*
X171188800Y-114891700D01*
X162929800Y-112445800D02*
X165375700Y-114891700D01*
X162929800Y-112319600D02*
X162929800Y-112445800D01*
X148621300Y-98011100D02*
X162929800Y-112319600D01*
X145533700Y-98011100D02*
X148621300Y-98011100D01*
X144956400Y-97433800D02*
X145533700Y-98011100D01*
X141648500Y-97433800D02*
X144956400Y-97433800D01*
%TO.N,/SST.A18*%
X146395700Y-104514000D02*
X143406900Y-104514000D01*
X150592600Y-111710500D02*
X151022400Y-111280700D01*
X143406900Y-111710500D02*
X150592600Y-111710500D01*
%TO.N,/SST.A17*%
X149639400Y-105779800D02*
X153628100Y-109768500D01*
X145695100Y-105779800D02*
X149639400Y-105779800D01*
%TO.N,/SST.A0*%
X141107000Y-94616400D02*
X135039100Y-88548500D01*
X149864600Y-94616400D02*
X141107000Y-94616400D01*
X155711800Y-100463600D02*
X149864600Y-94616400D01*
%TO.N,/SST.CE*%
X145737500Y-81433000D02*
X157906400Y-81433000D01*
X145575800Y-81594700D02*
X145737500Y-81433000D01*
%TO.N,/SST.OE*%
X149636900Y-83117800D02*
X156934200Y-83117800D01*
X148827400Y-83927300D02*
X149636900Y-83117800D01*
X142665700Y-83927300D02*
X148827400Y-83927300D01*
X142230100Y-83491700D02*
X142665700Y-83927300D01*
X142230100Y-82911900D02*
X142230100Y-83491700D01*
X142940400Y-82201600D02*
X142230100Y-82911900D01*
X142958700Y-82201600D02*
X142940400Y-82201600D01*
%TO.N,/AD0*%
X151947700Y-109143900D02*
X144545700Y-109143900D01*
X153651600Y-110847800D02*
X151947700Y-109143900D01*
X148987100Y-83201800D02*
X142930200Y-83201800D01*
X150048900Y-82140000D02*
X148987100Y-83201800D01*
X155879000Y-82140000D02*
X150048900Y-82140000D01*
X132436700Y-95512400D02*
X132436700Y-95373500D01*
X134977000Y-98052700D02*
X132436700Y-95512400D01*
X135753900Y-98052700D02*
X134977000Y-98052700D01*
X139853600Y-102152400D02*
X135753900Y-98052700D01*
X144545700Y-102152400D02*
X139853600Y-102152400D01*
%TO.N,/AD8*%
X124883900Y-103536500D02*
X124798800Y-103536500D01*
X124883900Y-98681400D02*
X124883900Y-103536500D01*
X128893500Y-94671800D02*
X124883900Y-98681400D01*
X132725100Y-94671800D02*
X128893500Y-94671800D01*
X135266900Y-97213600D02*
X132725100Y-94671800D01*
X135266900Y-97352600D02*
X135266900Y-97213600D01*
X124883900Y-110381300D02*
X124883900Y-103536500D01*
X127699600Y-113197000D02*
X124883900Y-110381300D01*
X129663900Y-113197000D02*
X127699600Y-113197000D01*
X135165000Y-118698100D02*
X129663900Y-113197000D01*
X143459400Y-118698100D02*
X135165000Y-118698100D01*
X146196100Y-121434800D02*
X143459400Y-118698100D01*
X147816000Y-121434800D02*
X146196100Y-121434800D01*
%TO.N,/AD1*%
X148169000Y-86437400D02*
X146942300Y-86437400D01*
X148999900Y-85606500D02*
X148169000Y-86437400D01*
X148999900Y-85452200D02*
X148999900Y-85606500D01*
X150180800Y-84271300D02*
X148999900Y-85452200D01*
X157442800Y-84271300D02*
X150180800Y-84271300D01*
X165428600Y-76285500D02*
X157442800Y-84271300D01*
X165428600Y-73570900D02*
X165428600Y-76285500D01*
X151774900Y-111848000D02*
X153644400Y-111848000D01*
X148128300Y-115494600D02*
X151774900Y-111848000D01*
X146353500Y-115494600D02*
X148128300Y-115494600D01*
X145455900Y-114597000D02*
X146353500Y-115494600D01*
X143832400Y-114597000D02*
X145455900Y-114597000D01*
X139036000Y-110580000D02*
X137629500Y-109173500D01*
X152376400Y-110580000D02*
X139036000Y-110580000D01*
X153644400Y-111848000D02*
X152376400Y-110580000D01*
X130372600Y-103151600D02*
X129251200Y-103151600D01*
X131079600Y-103858600D02*
X130372600Y-103151600D01*
X131079600Y-104176800D02*
X131079600Y-103858600D01*
X136076300Y-109173500D02*
X131079600Y-104176800D01*
X137629500Y-109173500D02*
X136076300Y-109173500D01*
%TO.N,/AD9*%
X139180600Y-103413800D02*
X134919800Y-99153000D01*
X148902800Y-103413800D02*
X139180600Y-103413800D01*
X156922400Y-111433400D02*
X148902800Y-103413800D01*
X156922400Y-113393200D02*
X156922400Y-111433400D01*
X131755300Y-102317500D02*
X130263200Y-102317500D01*
X134919800Y-99153000D02*
X131755300Y-102317500D01*
%TO.N,/AD2*%
X163879000Y-77227900D02*
X163879000Y-75078000D01*
X157235700Y-83871200D02*
X163879000Y-77227900D01*
X150015200Y-83871200D02*
X157235700Y-83871200D01*
X149496800Y-84389600D02*
X150015200Y-83871200D01*
X142562200Y-84389600D02*
X149496800Y-84389600D01*
X141830000Y-83657400D02*
X142562200Y-84389600D01*
X141830000Y-82340300D02*
X141830000Y-83657400D01*
X142800300Y-81370000D02*
X141830000Y-82340300D01*
X143717900Y-81370000D02*
X142800300Y-81370000D01*
X137839500Y-111608600D02*
X130379500Y-104148600D01*
X142003900Y-111608600D02*
X137839500Y-111608600D01*
X142956700Y-112561400D02*
X142003900Y-111608600D01*
X149034900Y-112561400D02*
X142956700Y-112561400D01*
X149344500Y-112871000D02*
X149034900Y-112561400D01*
%TO.N,/AD10*%
X144422300Y-81758200D02*
X144422300Y-82079800D01*
X151100500Y-75080000D02*
X144422300Y-81758200D01*
X151893000Y-75080000D02*
X151100500Y-75080000D01*
X130529700Y-106297600D02*
X130655700Y-106423600D01*
X129514500Y-106297600D02*
X130529700Y-106297600D01*
X128416600Y-107395500D02*
X129514500Y-106297600D01*
X128416600Y-108082000D02*
X128416600Y-107395500D01*
X129395800Y-109061200D02*
X128416600Y-108082000D01*
X131318400Y-109061200D02*
X129395800Y-109061200D01*
X133066500Y-110809300D02*
X131318400Y-109061200D01*
X134205500Y-110809300D02*
X133066500Y-110809300D01*
X139493600Y-116097400D02*
X134205500Y-110809300D01*
X144775700Y-116097400D02*
X139493600Y-116097400D01*
X145431800Y-116753500D02*
X144775700Y-116097400D01*
X152954200Y-116753500D02*
X145431800Y-116753500D01*
X155197400Y-118996700D02*
X152954200Y-116753500D01*
%TO.N,/AD3*%
X157350300Y-80443000D02*
X153661300Y-80443000D01*
X162453000Y-75340300D02*
X157350300Y-80443000D01*
X162453000Y-73572000D02*
X162453000Y-75340300D01*
X142190700Y-112561400D02*
X140066900Y-112561400D01*
X142590800Y-112961500D02*
X142190700Y-112561400D01*
X147065200Y-112961500D02*
X142590800Y-112961500D01*
X147979500Y-113875800D02*
X147065200Y-112961500D01*
X130674600Y-105442500D02*
X129555900Y-105442500D01*
X137793500Y-112561400D02*
X130674600Y-105442500D01*
X140066900Y-112561400D02*
X137793500Y-112561400D01*
%TO.N,/AD11*%
X132093500Y-103813900D02*
X134137100Y-103813900D01*
X131929200Y-103978200D02*
X132093500Y-103813900D01*
X156997000Y-118217500D02*
X157522300Y-118217500D01*
X152692100Y-113912600D02*
X156997000Y-118217500D01*
X152692100Y-113396000D02*
X152692100Y-113912600D01*
X153139700Y-112948400D02*
X152692100Y-113396000D01*
X155910700Y-112948400D02*
X153139700Y-112948400D01*
X156517300Y-112341800D02*
X155910700Y-112948400D01*
X156517300Y-111594100D02*
X156517300Y-112341800D01*
X148737100Y-103813900D02*
X156517300Y-111594100D01*
X134137100Y-103813900D02*
X148737100Y-103813900D01*
D22*
%TO.N,/VCC*%
X149089000Y-88867000D02*
X149089000Y-90442100D01*
X143059000Y-88876000D02*
X143059000Y-90451100D01*
X149089000Y-90793200D02*
X149089000Y-90442100D01*
X165082000Y-106617000D02*
X165082000Y-107692100D01*
X165082000Y-106617000D02*
X165082000Y-105541900D01*
X165532200Y-105091700D02*
X165082000Y-105541900D01*
X165532200Y-103901200D02*
X165532200Y-105091700D01*
X163433800Y-101802700D02*
X165532200Y-103901200D01*
X163777000Y-101459500D02*
X163433800Y-101802700D01*
X163777000Y-97743900D02*
X163777000Y-101459500D01*
X160458600Y-101200500D02*
X159817700Y-101200500D01*
X161337700Y-102079600D02*
X160458600Y-101200500D01*
X163156900Y-102079600D02*
X161337700Y-102079600D01*
X163433800Y-101802700D02*
X163156900Y-102079600D01*
X150305000Y-90793200D02*
X149089000Y-90793200D01*
X159817700Y-100305900D02*
X150305000Y-90793200D01*
X159817700Y-101200500D02*
X159817700Y-100305900D01*
X165082000Y-107692100D02*
X165082000Y-108169000D01*
X143210500Y-91842100D02*
X143059000Y-91690600D01*
X147756400Y-91842100D02*
X143210500Y-91842100D01*
X148805300Y-90793200D02*
X147756400Y-91842100D01*
X149089000Y-90793200D02*
X148805300Y-90793200D01*
X143059000Y-91690600D02*
X143059000Y-90451100D01*
X159778600Y-101239600D02*
X159686100Y-101239600D01*
X159817700Y-101200500D02*
X159778600Y-101239600D01*
X142364300Y-91690600D02*
X142298600Y-91756300D01*
X143059000Y-91690600D02*
X142364300Y-91690600D01*
X170457600Y-107465900D02*
X170605700Y-107317800D01*
X170457600Y-108255400D02*
X170457600Y-107465900D01*
X165168400Y-108255400D02*
X170457600Y-108255400D01*
X165082000Y-108169000D02*
X165168400Y-108255400D01*
X170457600Y-108383300D02*
X172189900Y-110115600D01*
X170457600Y-108255400D02*
X170457600Y-108383300D01*
D21*
%TO.N,/AD4*%
X129952800Y-107179700D02*
X129792600Y-107019500D01*
X131756100Y-107179700D02*
X129952800Y-107179700D01*
X138039300Y-113462900D02*
X131756100Y-107179700D01*
X141638800Y-113462900D02*
X138039300Y-113462900D01*
X145391100Y-113462900D02*
X146722700Y-114794500D01*
X141638800Y-113462900D02*
X145391100Y-113462900D01*
%TO.N,/AD12*%
X131039400Y-107792100D02*
X132283400Y-109036100D01*
X129116800Y-107792100D02*
X131039400Y-107792100D01*
X133046700Y-109036100D02*
X132283400Y-109036100D01*
X139707900Y-115697300D02*
X133046700Y-109036100D01*
X145424600Y-115697300D02*
X139707900Y-115697300D01*
X146022100Y-116294800D02*
X145424600Y-115697300D01*
X153761500Y-116294800D02*
X146022100Y-116294800D01*
X156886200Y-119419500D02*
X153761500Y-116294800D01*
%TO.N,/AD5*%
X132199400Y-113582600D02*
X133722500Y-113582600D01*
X126680000Y-108063200D02*
X132199400Y-113582600D01*
X137837700Y-117697800D02*
X133722500Y-113582600D01*
X143858800Y-117697800D02*
X137837700Y-117697800D01*
X145156400Y-118995400D02*
X143858800Y-117697800D01*
X146639600Y-118995400D02*
X145156400Y-118995400D01*
%TO.N,/AD13*%
X131405200Y-110732600D02*
X130834300Y-110732600D01*
X132797900Y-112125300D02*
X131405200Y-110732600D01*
X133962600Y-112125300D02*
X132797900Y-112125300D01*
X138734900Y-116897600D02*
X133962600Y-112125300D01*
X144361700Y-116897600D02*
X138734900Y-116897600D01*
X145324700Y-117860600D02*
X144361700Y-116897600D01*
X152200900Y-117860600D02*
X145324700Y-117860600D01*
X152200900Y-117860700D02*
X152200900Y-117860600D01*
X155458800Y-121118600D02*
X152200900Y-117860700D01*
%TO.N,/AD6*%
X132467400Y-112825400D02*
X132898900Y-112825400D01*
X131314500Y-111672500D02*
X132467400Y-112825400D01*
X148227700Y-118295200D02*
X148496400Y-118563900D01*
X145193500Y-118295200D02*
X148227700Y-118295200D01*
X144196000Y-117297700D02*
X145193500Y-118295200D01*
X138569200Y-117297700D02*
X144196000Y-117297700D01*
X134096900Y-112825400D02*
X138569200Y-117297700D01*
X132898900Y-112825400D02*
X134096900Y-112825400D01*
%TO.N,/AD14*%
X127159900Y-109641100D02*
X126687200Y-109168400D01*
X127159900Y-110939700D02*
X127159900Y-109641100D01*
X128119100Y-96012100D02*
X130636300Y-96012100D01*
X125539200Y-98592000D02*
X128119100Y-96012100D01*
X125539200Y-110361000D02*
X125539200Y-98592000D01*
X126117900Y-110939700D02*
X125539200Y-110361000D01*
X127159900Y-110939700D02*
X126117900Y-110939700D01*
X128071300Y-110939700D02*
X127159900Y-110939700D01*
X135229500Y-118097900D02*
X128071300Y-110939700D01*
X143493300Y-118097900D02*
X135229500Y-118097900D01*
X145993500Y-120598100D02*
X143493300Y-118097900D01*
X153938300Y-120598100D02*
X145993500Y-120598100D01*
X155208000Y-121867800D02*
X153938300Y-120598100D01*
X156775000Y-121867800D02*
X155208000Y-121867800D01*
%TO.N,/AD7*%
X142540100Y-119108400D02*
X145355600Y-121923900D01*
X133888700Y-119108400D02*
X142540100Y-119108400D01*
X131241000Y-116460700D02*
X133888700Y-119108400D01*
%TO.N,/AD15*%
X125979800Y-109791300D02*
X126419800Y-110231300D01*
X125979800Y-107773300D02*
X125979800Y-109791300D01*
X126422700Y-107330400D02*
X125979800Y-107773300D01*
X127608800Y-107330400D02*
X126422700Y-107330400D01*
X127608800Y-107857400D02*
X127608800Y-107330400D01*
X129283400Y-109532000D02*
X127608800Y-107857400D01*
X130796700Y-109532000D02*
X129283400Y-109532000D01*
X132474200Y-111209500D02*
X130796700Y-109532000D01*
X133612600Y-111209500D02*
X132474200Y-111209500D01*
X138900600Y-116497500D02*
X133612600Y-111209500D01*
X144527500Y-116497500D02*
X138900600Y-116497500D01*
X145183700Y-117153700D02*
X144527500Y-116497500D01*
X152059800Y-117153700D02*
X145183700Y-117153700D01*
X154603000Y-119696900D02*
X152059800Y-117153700D01*
X156003000Y-119696900D02*
X154603000Y-119696900D01*
X157295500Y-120989400D02*
X156003000Y-119696900D01*
X158011400Y-120989400D02*
X157295500Y-120989400D01*
X127608800Y-100006800D02*
X129936100Y-97679500D01*
X127608800Y-107330400D02*
X127608800Y-100006800D01*
D22*
%TO.N,/GND*%
X138529000Y-88869000D02*
X138529000Y-90444100D01*
X165077000Y-109720000D02*
X165077000Y-110795100D01*
X166233000Y-67205000D02*
X163254000Y-70184000D01*
X168028900Y-67205000D02*
X166233000Y-67205000D01*
X170564000Y-67205000D02*
X168028900Y-67205000D01*
X131560000Y-67326000D02*
X131560000Y-69836100D01*
X131089400Y-69836100D02*
X131560000Y-69836100D01*
X127844500Y-73081000D02*
X131089400Y-69836100D01*
X127844500Y-75079000D02*
X127844500Y-73081000D01*
X131560000Y-67326000D02*
X134095100Y-67326000D01*
X162074800Y-71363200D02*
X163254000Y-70184000D01*
X145751300Y-71363200D02*
X162074800Y-71363200D01*
X142987100Y-68599000D02*
X145751300Y-71363200D01*
X141637000Y-68599000D02*
X142987100Y-68599000D01*
X162582000Y-88871000D02*
X162582000Y-88147900D01*
X147586000Y-88873000D02*
X147586000Y-87297900D01*
X147594100Y-87289800D02*
X147586000Y-87297900D01*
X161835200Y-87289800D02*
X147594100Y-87289800D01*
X162637700Y-88092200D02*
X161835200Y-87289800D01*
X162637700Y-88092200D02*
X162582000Y-88147900D01*
X173327100Y-123188800D02*
X174562000Y-121953900D01*
X134008100Y-123188800D02*
X173327100Y-123188800D01*
X131399400Y-120580100D02*
X134008100Y-123188800D01*
X131399400Y-118925500D02*
X131399400Y-120580100D01*
X127787500Y-115313600D02*
X131399400Y-118925500D01*
X126798800Y-115313600D02*
X127787500Y-115313600D01*
X139209800Y-65422800D02*
X140278000Y-66491000D01*
X135165600Y-65422800D02*
X139209800Y-65422800D01*
X134095100Y-66493300D02*
X135165600Y-65422800D01*
X134095100Y-67326000D02*
X134095100Y-66493300D01*
X140935900Y-67148900D02*
X141637000Y-67148900D01*
X140278000Y-66491000D02*
X140935900Y-67148900D01*
X141637000Y-68599000D02*
X141637000Y-67148900D01*
X155394000Y-113655400D02*
X153447800Y-113655400D01*
X158124800Y-116386200D02*
X155394000Y-113655400D01*
X138529000Y-88869000D02*
X138529000Y-87293900D01*
X170055100Y-88092200D02*
X162637700Y-88092200D01*
X170444600Y-87702700D02*
X170055100Y-88092200D01*
X171764900Y-87702700D02*
X170444600Y-87702700D01*
X175088400Y-90081000D02*
X175088500Y-90081000D01*
X175088400Y-89861800D02*
X175088400Y-90081000D01*
X172929300Y-87702700D02*
X175088400Y-89861800D01*
X171764900Y-87702700D02*
X172929300Y-87702700D01*
X160698800Y-118960200D02*
X161468900Y-118960200D01*
X158124800Y-116386200D02*
X160698800Y-118960200D01*
X170055100Y-94953200D02*
X170330000Y-95228100D01*
X170055100Y-88092200D02*
X170055100Y-94953200D01*
X147582000Y-87293900D02*
X138529000Y-87293900D01*
X147586000Y-87297900D02*
X147582000Y-87293900D01*
X137545900Y-87293900D02*
X135401700Y-85149700D01*
X138529000Y-87293900D02*
X137545900Y-87293900D01*
X171962800Y-119088800D02*
X172059300Y-119088800D01*
X172059300Y-120107900D02*
X172059300Y-119088800D01*
X170781500Y-121385700D02*
X172059300Y-120107900D01*
X163894400Y-121385700D02*
X170781500Y-121385700D01*
X161468900Y-118960200D02*
X163894400Y-121385700D01*
X170527100Y-113020200D02*
X168227000Y-113020200D01*
X172059300Y-114552400D02*
X170527100Y-113020200D01*
X172059300Y-119088800D02*
X172059300Y-114552400D01*
X168227000Y-113786500D02*
X168227000Y-113020200D01*
X166001900Y-110795100D02*
X165077000Y-110795100D01*
X168227000Y-113020200D02*
X166001900Y-110795100D01*
X141372500Y-93287600D02*
X138529000Y-90444100D01*
X146392000Y-93287600D02*
X141372500Y-93287600D01*
D21*
%TO.N,/SST.A16*%
X133485500Y-119808600D02*
X137583500Y-119808600D01*
X128805800Y-115128900D02*
X133485500Y-119808600D01*
%TD*%
M02*
