%TF.GenerationSoftware,KiCad,Pcbnew,(6.0.2)*%
%TF.CreationDate,2022-11-15T22:57:49-06:00*%
%TF.ProjectId,REF1714,52454631-3731-4342-9e6b-696361645f70,rev?*%
%TF.SameCoordinates,Original*%
%TF.FileFunction,Legend,Bot*%
%TF.FilePolarity,Positive*%
%FSLAX46Y46*%
G04 Gerber Fmt 4.6, Leading zero omitted, Abs format (unit mm)*
G04 Created by KiCad (PCBNEW (6.0.2)) date 2022-11-15 22:57:49*
%MOMM*%
%LPD*%
G01*
G04 APERTURE LIST*
%ADD10C,0.150000*%
G04 APERTURE END LIST*
D10*
X163736142Y-107983333D02*
X163783761Y-107935714D01*
X163831380Y-107792857D01*
X163831380Y-107697619D01*
X163783761Y-107554761D01*
X163688523Y-107459523D01*
X163593285Y-107411904D01*
X163402809Y-107364285D01*
X163259952Y-107364285D01*
X163069476Y-107411904D01*
X162974238Y-107459523D01*
X162879000Y-107554761D01*
X162831380Y-107697619D01*
X162831380Y-107792857D01*
X162879000Y-107935714D01*
X162926619Y-107983333D01*
X162831380Y-108316666D02*
X162831380Y-108983333D01*
X163831380Y-108554761D01*
X151796904Y-81634380D02*
X151796904Y-80634380D01*
X151225476Y-81634380D01*
X151225476Y-80634380D01*
X150749285Y-81634380D02*
X150749285Y-80634380D01*
X150511190Y-80634380D01*
X150368333Y-80682000D01*
X150273095Y-80777238D01*
X150225476Y-80872476D01*
X150177857Y-81062952D01*
X150177857Y-81205809D01*
X150225476Y-81396285D01*
X150273095Y-81491523D01*
X150368333Y-81586761D01*
X150511190Y-81634380D01*
X150749285Y-81634380D01*
X149796904Y-81586761D02*
X149654047Y-81634380D01*
X149415952Y-81634380D01*
X149320714Y-81586761D01*
X149273095Y-81539142D01*
X149225476Y-81443904D01*
X149225476Y-81348666D01*
X149273095Y-81253428D01*
X149320714Y-81205809D01*
X149415952Y-81158190D01*
X149606428Y-81110571D01*
X149701666Y-81062952D01*
X149749285Y-81015333D01*
X149796904Y-80920095D01*
X149796904Y-80824857D01*
X149749285Y-80729619D01*
X149701666Y-80682000D01*
X149606428Y-80634380D01*
X149368333Y-80634380D01*
X149225476Y-80682000D01*
X151820714Y-83196761D02*
X151677857Y-83244380D01*
X151439761Y-83244380D01*
X151344523Y-83196761D01*
X151296904Y-83149142D01*
X151249285Y-83053904D01*
X151249285Y-82958666D01*
X151296904Y-82863428D01*
X151344523Y-82815809D01*
X151439761Y-82768190D01*
X151630238Y-82720571D01*
X151725476Y-82672952D01*
X151773095Y-82625333D01*
X151820714Y-82530095D01*
X151820714Y-82434857D01*
X151773095Y-82339619D01*
X151725476Y-82292000D01*
X151630238Y-82244380D01*
X151392142Y-82244380D01*
X151249285Y-82292000D01*
X150677857Y-83244380D02*
X150773095Y-83196761D01*
X150820714Y-83101523D01*
X150820714Y-82244380D01*
X150154047Y-83244380D02*
X150249285Y-83196761D01*
X150296904Y-83149142D01*
X150344523Y-83053904D01*
X150344523Y-82768190D01*
X150296904Y-82672952D01*
X150249285Y-82625333D01*
X150154047Y-82577714D01*
X150011190Y-82577714D01*
X149915952Y-82625333D01*
X149868333Y-82672952D01*
X149820714Y-82768190D01*
X149820714Y-83053904D01*
X149868333Y-83149142D01*
X149915952Y-83196761D01*
X150011190Y-83244380D01*
X150154047Y-83244380D01*
X149535000Y-82577714D02*
X149154047Y-82577714D01*
X149392142Y-82244380D02*
X149392142Y-83101523D01*
X149344523Y-83196761D01*
X149249285Y-83244380D01*
X149154047Y-83244380D01*
X138280285Y-85190380D02*
X138851714Y-85190380D01*
X138566000Y-85190380D02*
X138566000Y-84190380D01*
X138661238Y-84333238D01*
X138756476Y-84428476D01*
X138851714Y-84476095D01*
X138566000Y-87133714D02*
X138566000Y-85705142D01*
M02*
