M48
; DRILL file {KiCad (6.0.2)} date Thu Aug 25 07:28:04 2022
; FORMAT={-:-/ absolute / metric / decimal}
; #@! TF.CreationDate,2022-08-25T07:28:04-05:00
; #@! TF.GenerationSoftware,Kicad,Pcbnew,(6.0.2)
; #@! TF.FileFunction,Plated,1,2,PTH
FMAT,2
METRIC
; #@! TA.AperFunction,Plated,PTH,ViaDrill
T1C0.400
; #@! TA.AperFunction,Plated,PTH,ComponentDrill
T2C1.000
; #@! TA.AperFunction,Plated,PTH,ComponentDrill
T3C1.200
; #@! TA.AperFunction,Plated,PTH,ComponentDrill
T4C1.300
; #@! TA.AperFunction,Plated,PTH,ComponentDrill
T5C1.860
; #@! TA.AperFunction,Plated,PTH,ComponentDrill
T6C2.250
%
G90
G05
T1
X124.799Y-103.536
X126.42Y-110.231
X126.68Y-108.063
X126.687Y-109.168
X126.799Y-115.314
X128.171Y-96.973
X128.806Y-115.129
X129.117Y-107.792
X129.251Y-103.152
X129.556Y-105.442
X129.793Y-107.019
X129.936Y-97.679
X130.263Y-102.317
X130.38Y-104.149
X130.44Y-93.053
X130.636Y-96.012
X130.656Y-106.424
X130.834Y-110.733
X131.141Y-92.069
X131.241Y-116.461
X131.314Y-111.672
X131.929Y-103.978
X132.283Y-109.036
X132.437Y-95.373
X132.899Y-112.825
X133.02Y-85.637
X133.722Y-113.583
X134.044Y-121.956
X134.137Y-103.814
X134.92Y-99.153
X135.039Y-88.548
X135.267Y-97.353
X135.402Y-85.15
X137.583Y-119.809
X137.63Y-109.173
X138.66Y-83.419
X139.822Y-114.803
X139.891Y-109.878
X139.917Y-95.814
X140.011Y-101.32
X140.067Y-112.561
X141.639Y-113.463
X141.648Y-97.434
X141.648Y-101.379
X142.299Y-91.756
X142.93Y-83.202
X142.959Y-82.202
X143.407Y-104.514
X143.407Y-111.71
X143.718Y-81.37
X143.832Y-114.597
X144.422Y-82.08
X144.546Y-102.152
X144.546Y-109.144
X144.944Y-90.992
X145.356Y-121.924
X145.576Y-81.595
X145.633Y-101.649
X145.695Y-105.78
X145.824Y-97.311
X145.99Y-109.878
X146.364Y-108.154
X146.392Y-93.288
X146.396Y-104.514
X146.64Y-118.995
X146.723Y-114.794
X146.942Y-86.437
X147.481Y-90.915
X147.816Y-121.435
X147.98Y-113.876
X148.047Y-85.553
X148.496Y-118.564
X149.032Y-91.787
X149.23Y-86.366
X149.344Y-112.871
X150.157Y-107.356
X150.471Y-84.971
X151.022Y-111.281
X153.448Y-113.655
X153.628Y-109.768
X153.644Y-111.848
X153.652Y-110.848
X153.661Y-80.443
X155.197Y-118.997
X155.396Y-86.366
X155.396Y-97.126
X155.459Y-121.119
X155.712Y-100.464
X155.817Y-112.052
X155.879Y-82.14
X156.234Y-92.527
X156.775Y-121.868
X156.886Y-119.419
X156.922Y-113.393
X156.934Y-83.118
X157.522Y-118.218
X157.906Y-81.433
X158.011Y-120.989
X158.125Y-116.386
X159.142Y-93.652
X159.686Y-101.24
X159.838Y-102.44
X161.469Y-118.96
X161.856Y-101.21
X162.828Y-94.4
X162.977Y-118.148
X163.501Y-119.039
X163.57Y-103.144
X163.777Y-97.744
X164.67Y-104.446
X165.19Y-111.7
X165.202Y-96.013
X165.359Y-112.7
X165.843Y-119.004
X166.03Y-117.049
X166.084Y-90.238
X166.13Y-83.449
X166.432Y-107.337
X166.728Y-89.428
X166.911Y-101.856
X166.919Y-103.453
X167.056Y-119.735
X167.177Y-113.784
X167.218Y-93.997
X167.227Y-117.284
X167.931Y-83.185
X168.227Y-113.786
X169.354Y-113.873
X169.532Y-109.829
X169.617Y-72.398
X169.807Y-102.745
X169.814Y-77.782
X170.02Y-101.736
X170.103Y-119.573
X170.33Y-95.228
X170.529Y-99.847
X170.604Y-109.755
X170.606Y-107.318
X171.189Y-114.892
X171.192Y-119.773
X171.527Y-101.583
X171.672Y-88.967
X171.765Y-87.703
X171.963Y-119.089
X172.19Y-110.116
X172.626Y-109.128
X172.731Y-99.177
X173.329Y-115.199
X173.376Y-89.352
X173.571Y-68.296
X174.562Y-121.954
X175.088Y-92.536
X175.088Y-90.081
X176.627Y-115.199
X177.133Y-73.144
T2
X135.711Y-66.809
X140.278Y-66.491
X148.811Y-67.654
X153.218Y-67.654
T3
X127.844Y-75.079
X129.348Y-73.572
X130.863Y-75.087
X132.37Y-73.572
X133.877Y-75.079
X135.384Y-73.572
X136.929Y-75.077
X138.48Y-73.574
X139.871Y-75.079
X141.415Y-73.569
X142.848Y-75.078
X144.393Y-73.57
X145.861Y-75.08
X147.409Y-73.572
X148.878Y-75.078
X150.423Y-73.571
X151.893Y-75.08
X153.444Y-73.57
X154.83Y-75.079
X156.38Y-73.571
X157.844Y-75.079
X159.396Y-73.571
X159.809Y-69.863
X160.904Y-75.079
X162.453Y-73.572
X163.254Y-70.184
X163.879Y-75.078
X165.429Y-73.571
X166.198Y-70.421
X166.897Y-75.079
X168.443Y-73.571
X169.095Y-70.697
X169.913Y-75.077
X171.461Y-73.571
X172.509Y-70.935
X172.929Y-75.079
X174.476Y-73.571
T5
X135.516Y-81.73
X166.59Y-81.734
T6
X125.993Y-69.391
X127.221Y-117.246
X175.286Y-117.049
X176.038Y-69.386
T4
G00X134.808Y-68.965
M15
G01X134.808Y-69.165
M16
G05
G00X141.637Y-68.499
M15
G01X141.637Y-68.699
M16
G05
T0
M30
