%TF.GenerationSoftware,KiCad,Pcbnew,(6.0.2)*%
%TF.CreationDate,2022-08-25T07:28:03-05:00*%
%TF.ProjectId,REF1714,52454631-3731-4342-9e6b-696361645f70,rev?*%
%TF.SameCoordinates,Original*%
%TF.FileFunction,Soldermask,Bot*%
%TF.FilePolarity,Negative*%
%FSLAX46Y46*%
G04 Gerber Fmt 4.6, Leading zero omitted, Abs format (unit mm)*
G04 Created by KiCad (PCBNEW (6.0.2)) date 2022-08-25 07:28:03*
%MOMM*%
%LPD*%
G01*
G04 APERTURE LIST*
%ADD10C,1.200000*%
%ADD11R,1.300000X1.250000*%
%ADD12C,2.580000*%
%ADD13R,0.950000X2.250000*%
%ADD14R,4.170000X4.120000*%
%ADD15C,2.180000*%
%ADD16O,1.800000X2.000000*%
%ADD17C,1.750000*%
%ADD18C,2.100000*%
%ADD19C,1.860000*%
G04 APERTURE END LIST*
D10*
%TO.C,J1*%
X148811000Y-67654000D03*
X153218000Y-67654000D03*
%TD*%
D11*
%TO.C,C7*%
X165082000Y-106617000D03*
X165082000Y-108169000D03*
X165077000Y-109720000D03*
%TD*%
D12*
%TO.C,DrillHoles*%
X127221000Y-117246000D03*
X125993000Y-69391000D03*
X176038000Y-69386000D03*
X175285900Y-117048700D03*
%TD*%
D13*
%TO.C,U3*%
X138529000Y-88869000D03*
X140046000Y-88875000D03*
X141552000Y-88878000D03*
X143059000Y-88876000D03*
X144565000Y-88869000D03*
X146074000Y-88872000D03*
X147586000Y-88873000D03*
X149089000Y-88867000D03*
X150560000Y-88869000D03*
X152108000Y-88871000D03*
X153577000Y-88870000D03*
X155044000Y-88870000D03*
X156556000Y-88867000D03*
X158058000Y-88871000D03*
X159569000Y-88869000D03*
X161075000Y-88865000D03*
X162582000Y-88871000D03*
D14*
X131560000Y-67326000D03*
X170564000Y-67205000D03*
D15*
X135516000Y-81730000D03*
X166590000Y-81734000D03*
%TD*%
D16*
%TO.C,SW1*%
X141637000Y-68599000D03*
D17*
X140278000Y-66491000D03*
X135711000Y-66809000D03*
D16*
X134808000Y-69065000D03*
%TD*%
D18*
%TO.C,J2*%
X163254000Y-70184000D03*
X166198000Y-70421000D03*
X169095000Y-70697000D03*
X159809000Y-69863000D03*
X172509200Y-70935000D03*
%TD*%
D19*
%TO.C,J4*%
X127844500Y-75079000D03*
X129348000Y-73572000D03*
X130863000Y-75087000D03*
X132370000Y-73572000D03*
X133877000Y-75079000D03*
X135384000Y-73572000D03*
X136929000Y-75077000D03*
X138480000Y-73574000D03*
X139871000Y-75079000D03*
X141415000Y-73569000D03*
X142848000Y-75078000D03*
X144393000Y-73570000D03*
X145861000Y-75080000D03*
X147409000Y-73572000D03*
X148878000Y-75078000D03*
X150423000Y-73571000D03*
X151893000Y-75080000D03*
X153444000Y-73570000D03*
X154830000Y-75079000D03*
X156379800Y-73570900D03*
X157844000Y-75079000D03*
X159396100Y-73570900D03*
X160904200Y-75079000D03*
X162453000Y-73572000D03*
X163879000Y-75078000D03*
X165428600Y-73570900D03*
X166897000Y-75079000D03*
X168443000Y-73571000D03*
X169913000Y-75077000D03*
X171461100Y-73570900D03*
X172929500Y-75079000D03*
X174476000Y-73571000D03*
%TD*%
M02*
