%TF.GenerationSoftware,KiCad,Pcbnew,(6.0.2)*%
%TF.CreationDate,2022-08-25T07:28:03-05:00*%
%TF.ProjectId,REF1714,52454631-3731-4342-9e6b-696361645f70,rev?*%
%TF.SameCoordinates,Original*%
%TF.FileFunction,Copper,L1,Top*%
%TF.FilePolarity,Positive*%
%FSLAX46Y46*%
G04 Gerber Fmt 4.6, Leading zero omitted, Abs format (unit mm)*
G04 Created by KiCad (PCBNEW (6.0.2)) date 2022-08-25 07:28:03*
%MOMM*%
%LPD*%
G01*
G04 APERTURE LIST*
%TA.AperFunction,SMDPad,CuDef*%
%ADD10R,4.000000X1.250000*%
%TD*%
%TA.AperFunction,SMDPad,CuDef*%
%ADD11O,1.400000X0.300000*%
%TD*%
%TA.AperFunction,SMDPad,CuDef*%
%ADD12O,0.300000X1.400000*%
%TD*%
%TA.AperFunction,SMDPad,CuDef*%
%ADD13R,0.500000X2.000000*%
%TD*%
%TA.AperFunction,SMDPad,CuDef*%
%ADD14R,2.000000X2.000000*%
%TD*%
%TA.AperFunction,ComponentPad*%
%ADD15C,1.200000*%
%TD*%
%TA.AperFunction,SMDPad,CuDef*%
%ADD16R,1.580000X0.400000*%
%TD*%
%TA.AperFunction,SMDPad,CuDef*%
%ADD17R,1.000000X1.300000*%
%TD*%
%TA.AperFunction,SMDPad,CuDef*%
%ADD18R,1.300000X1.000000*%
%TD*%
%TA.AperFunction,ComponentPad*%
%ADD19C,2.580000*%
%TD*%
%TA.AperFunction,ComponentPad*%
%ADD20C,2.180000*%
%TD*%
%TA.AperFunction,ComponentPad*%
%ADD21O,1.800000X2.000000*%
%TD*%
%TA.AperFunction,ComponentPad*%
%ADD22C,1.750000*%
%TD*%
%TA.AperFunction,ComponentPad*%
%ADD23C,2.100000*%
%TD*%
%TA.AperFunction,SMDPad,CuDef*%
%ADD24R,1.206500X0.279400*%
%TD*%
%TA.AperFunction,ComponentPad*%
%ADD25C,1.860000*%
%TD*%
%TA.AperFunction,SMDPad,CuDef*%
%ADD26R,1.430000X7.780000*%
%TD*%
%TA.AperFunction,SMDPad,CuDef*%
%ADD27R,1.030000X7.780000*%
%TD*%
%TA.AperFunction,ViaPad*%
%ADD28C,0.800000*%
%TD*%
%TA.AperFunction,Conductor*%
%ADD29C,0.250000*%
%TD*%
%TA.AperFunction,Conductor*%
%ADD30C,0.200000*%
%TD*%
%TA.AperFunction,Conductor*%
%ADD31C,0.399800*%
%TD*%
%TA.AperFunction,Conductor*%
%ADD32C,0.500000*%
%TD*%
%TA.AperFunction,Conductor*%
%ADD33C,0.299800*%
%TD*%
%TA.AperFunction,Conductor*%
%ADD34C,0.279200*%
%TD*%
G04 APERTURE END LIST*
D10*
%TO.P,Y1,3,3*%
%TO.N,/GND*%
X172945000Y-96110000D03*
%TO.P,Y1,2,2*%
%TO.N,/40MHz.Pin2*%
X172947000Y-94490000D03*
%TO.P,Y1,1,1*%
%TO.N,/40MHz.Pin1*%
X172947000Y-97736000D03*
%TD*%
D11*
%TO.P,U2,100,IO*%
%TO.N,/GND*%
X152327000Y-113031000D03*
%TO.P,U2,99,IO*%
%TO.N,/AD3*%
X152327000Y-112531000D03*
%TO.P,U2,98,IO*%
%TO.N,/AD2*%
X152327000Y-112031000D03*
%TO.P,U2,97,IO*%
%TO.N,/AD1*%
X152327000Y-111531000D03*
%TO.P,U2,96,IO*%
%TO.N,/AD0*%
X152327000Y-111031000D03*
%TO.P,U2,95,IO*%
%TO.N,/SST.A18*%
X152327000Y-110531000D03*
%TO.P,U2,94,IO*%
%TO.N,/SST.A17*%
X152327000Y-110031000D03*
%TO.P,U2,93,IO*%
%TO.N,/SST.A16*%
X152327000Y-109531000D03*
%TO.P,U2,92,IO*%
%TO.N,/GND*%
X152327000Y-109031000D03*
%TO.P,U2,91,IO*%
%TO.N,/SST.A15*%
X152327000Y-108531000D03*
%TO.P,U2,90,IO*%
%TO.N,/SST.A14*%
X152327000Y-108031000D03*
%TO.P,U2,89,IO*%
%TO.N,/SST.A13*%
X152327000Y-107531000D03*
%TO.P,U2,88,IO*%
%TO.N,/VCC*%
X152327000Y-107031000D03*
%TO.P,U2,87,IO*%
%TO.N,/SST.A12*%
X152327000Y-106531000D03*
%TO.P,U2,86,IO*%
%TO.N,/SST.A11*%
X152327000Y-106031000D03*
%TO.P,U2,85,IO*%
%TO.N,/SST.A10*%
X152327000Y-105531000D03*
%TO.P,U2,84,IO*%
%TO.N,/GND*%
X152327000Y-105031000D03*
%TO.P,U2,83,IO*%
%TO.N,/SST.A9*%
X152327000Y-104531000D03*
%TO.P,U2,82,IO*%
%TO.N,/SST.A8*%
X152327000Y-104031000D03*
%TO.P,U2,81,IO*%
%TO.N,/SST.A7*%
X152327000Y-103531000D03*
%TO.P,U2,80,IO*%
%TO.N,/SST.A6*%
X152327000Y-103031000D03*
%TO.P,U2,79,IO*%
%TO.N,/SST.A5*%
X152327000Y-102531000D03*
%TO.P,U2,78,IO*%
%TO.N,/SST.A4*%
X152327000Y-102031000D03*
%TO.P,U2,77,IO*%
%TO.N,/SST.A3*%
X152327000Y-101531000D03*
%TO.P,U2,76,IO*%
%TO.N,/GND*%
X152327000Y-101031000D03*
D12*
%TO.P,U2,75,IO*%
%TO.N,/VCC*%
X154277000Y-99081000D03*
%TO.P,U2,74,IO*%
%TO.N,/SST.A2*%
X154777000Y-99081000D03*
%TO.P,U2,73,IO*%
%TO.N,/SST.A1*%
X155277000Y-99081000D03*
%TO.P,U2,72,IO*%
%TO.N,/SST.A0*%
X155777000Y-99081000D03*
%TO.P,U2,71,IO*%
%TO.N,/SST.WE*%
X156277000Y-99081000D03*
%TO.P,U2,70,IO*%
%TO.N,/SST.OE*%
X156777000Y-99081000D03*
%TO.P,U2,69,IO*%
%TO.N,/SST.CE*%
X157277000Y-99081000D03*
%TO.P,U2,68,IO*%
%TO.N,unconnected-(U2-Pad68)*%
X157777000Y-99081000D03*
%TO.P,U2,67,IO*%
%TO.N,unconnected-(U2-Pad67)*%
X158277000Y-99081000D03*
%TO.P,U2,66,IO*%
%TO.N,/GND*%
X158777000Y-99081000D03*
%TO.P,U2,65,IO*%
%TO.N,/Cy.P0-7*%
X159277000Y-99081000D03*
%TO.P,U2,64,IO*%
%TO.N,/Cy.P0-6*%
X159777000Y-99081000D03*
%TO.P,U2,63,IO*%
%TO.N,/Cy.P0-5*%
X160277000Y-99081000D03*
%TO.P,U2,62,IO*%
%TO.N,/Cy.P0-4*%
X160777000Y-99081000D03*
%TO.P,U2,61,IO*%
%TO.N,/Cy.P0-3*%
X161277000Y-99081000D03*
%TO.P,U2,60,IO*%
%TO.N,/Cy.P0-2*%
X161777000Y-99081000D03*
%TO.P,U2,59,IO*%
%TO.N,/CY.P0-1*%
X162277000Y-99081000D03*
%TO.P,U2,58,IO*%
%TO.N,/Cy.P0-0*%
X162777000Y-99081000D03*
%TO.P,U2,57,IO*%
%TO.N,/VCC*%
X163277000Y-99081000D03*
%TO.P,U2,56,IO*%
X163777000Y-99081000D03*
%TO.P,U2,55,IO*%
X164277000Y-99081000D03*
%TO.P,U2,54,IO*%
%TO.N,/GND*%
X164777000Y-99081000D03*
%TO.P,U2,53,IO*%
%TO.N,/40MHz.Pin2*%
X165277000Y-99081000D03*
%TO.P,U2,52,IO*%
%TO.N,/40MHz.Pin1*%
X165777000Y-99081000D03*
%TO.P,U2,51,IO*%
%TO.N,/VCC*%
X166277000Y-99081000D03*
D11*
%TO.P,U2,50,IO*%
%TO.N,/GND*%
X168227000Y-101031000D03*
%TO.P,U2,49,IO*%
%TO.N,/Cy.P1-1*%
X168227000Y-101531000D03*
%TO.P,U2,48,IO*%
%TO.N,/Cy.P1-3*%
X168227000Y-102031000D03*
%TO.P,U2,47,IO*%
%TO.N,/Cy.P1-2*%
X168227000Y-102531000D03*
%TO.P,U2,46,IO*%
%TO.N,/Cy.P1-0*%
X168227000Y-103031000D03*
%TO.P,U2,45,IO*%
%TO.N,unconnected-(U2-Pad45)*%
X168227000Y-103531000D03*
%TO.P,U2,44,IO*%
%TO.N,/NDS.D7*%
X168227000Y-104031000D03*
%TO.P,U2,43,IO*%
%TO.N,/NDS.Clk*%
X168227000Y-104531000D03*
%TO.P,U2,42,IO*%
%TO.N,/NDS.D6*%
X168227000Y-105031000D03*
%TO.P,U2,41,IO*%
%TO.N,/NDS.CS2*%
X168227000Y-105531000D03*
%TO.P,U2,40,IO*%
%TO.N,/GND*%
X168227000Y-106031000D03*
%TO.P,U2,39,IO*%
%TO.N,/Loop*%
X168227000Y-106531000D03*
%TO.P,U2,38,IO*%
%TO.N,/VCC*%
X168227000Y-107031000D03*
%TO.P,U2,37,IO*%
%TO.N,/Loop*%
X168227000Y-107531000D03*
%TO.P,U2,36,IO*%
%TO.N,/GND*%
X168227000Y-108031000D03*
%TO.P,U2,35,IO*%
%TO.N,/Rd_Game*%
X168227000Y-108531000D03*
%TO.P,U2,34,IO*%
%TO.N,/CS.Rom.Game*%
X168227000Y-109031000D03*
%TO.P,U2,33,IO*%
%TO.N,/Rd_Sys*%
X168227000Y-109531000D03*
%TO.P,U2,32,IO*%
%TO.N,/CS.Rom.Sys*%
X168227000Y-110031000D03*
%TO.P,U2,31,IO*%
%TO.N,/VCC*%
X168227000Y-110531000D03*
%TO.P,U2,30,IO*%
%TO.N,/Write*%
X168227000Y-111031000D03*
%TO.P,U2,29,IO*%
%TO.N,/Switch*%
X168227000Y-111531000D03*
%TO.P,U2,28,IO*%
%TO.N,/NDS.Reset*%
X168227000Y-112031000D03*
%TO.P,U2,27,IO*%
%TO.N,/Button*%
X168227000Y-112531000D03*
%TO.P,U2,26,IO*%
%TO.N,/GND*%
X168227000Y-113031000D03*
D12*
%TO.P,U2,25,IO*%
%TO.N,/VCC*%
X166277000Y-114981000D03*
%TO.P,U2,24,IO*%
%TO.N,/A23*%
X165777000Y-114981000D03*
%TO.P,U2,23,IO*%
%TO.N,/A22*%
X165277000Y-114981000D03*
%TO.P,U2,22,IO*%
%TO.N,/A21*%
X164777000Y-114981000D03*
%TO.P,U2,21,IO*%
%TO.N,/A20*%
X164277000Y-114981000D03*
%TO.P,U2,20,IO*%
%TO.N,/A19*%
X163777000Y-114981000D03*
%TO.P,U2,19,IO*%
%TO.N,/A18*%
X163277000Y-114981000D03*
%TO.P,U2,18,IO*%
%TO.N,/A17*%
X162777000Y-114981000D03*
%TO.P,U2,17,IO*%
%TO.N,/A16*%
X162277000Y-114981000D03*
%TO.P,U2,16,IO*%
%TO.N,/GND*%
X161777000Y-114981000D03*
%TO.P,U2,15,IO*%
%TO.N,/AD15*%
X161277000Y-114981000D03*
%TO.P,U2,14,IO*%
%TO.N,/AD14*%
X160777000Y-114981000D03*
%TO.P,U2,13,IO*%
%TO.N,/AD13*%
X160277000Y-114981000D03*
%TO.P,U2,12,IO*%
%TO.N,/AD12*%
X159777000Y-114981000D03*
%TO.P,U2,11,IO*%
%TO.N,/AD11*%
X159277000Y-114981000D03*
%TO.P,U2,10,IO*%
%TO.N,/AD10*%
X158777000Y-114981000D03*
%TO.P,U2,9,IO*%
%TO.N,/GND*%
X158277000Y-114981000D03*
%TO.P,U2,8,IO*%
%TO.N,/VCC*%
X157777000Y-114981000D03*
%TO.P,U2,7,IO*%
%TO.N,/AD9*%
X157277000Y-114981000D03*
%TO.P,U2,6,IO*%
%TO.N,/AD8*%
X156777000Y-114981000D03*
%TO.P,U2,5,IO*%
%TO.N,/AD7*%
X156277000Y-114981000D03*
%TO.P,U2,4,IO*%
%TO.N,/AD6*%
X155777000Y-114981000D03*
%TO.P,U2,3,IO*%
%TO.N,/AD5*%
X155277000Y-114981000D03*
%TO.P,U2,2,IO*%
%TO.N,/AD4*%
X154777000Y-114981000D03*
%TO.P,U2,1,IO*%
%TO.N,/VCC*%
X154277000Y-114981000D03*
%TD*%
D13*
%TO.P,J1,1,VBUS*%
%TO.N,/USB.VBUS*%
X152585000Y-70750000D03*
%TO.P,J1,2,D-*%
%TO.N,/Cy.D-*%
X151792000Y-70746000D03*
%TO.P,J1,3,D+*%
%TO.N,/Cy.D+*%
X151038000Y-70746000D03*
%TO.P,J1,4,ID*%
%TO.N,unconnected-(J1-Pad4)*%
X150247000Y-70750000D03*
%TO.P,J1,5,GND*%
%TO.N,/GND*%
X149486000Y-70750000D03*
D14*
%TO.P,J1,6,Shield*%
%TO.N,unconnected-(J1-Pad6)*%
X146749000Y-70113000D03*
%TO.P,J1,7*%
%TO.N,N/C*%
X155361000Y-70115000D03*
%TO.P,J1,8*%
X146711000Y-64595000D03*
%TO.P,J1,9*%
X155324000Y-64597000D03*
D15*
%TO.P,J1,10*%
X148811000Y-67654000D03*
%TO.P,J1,11*%
X153218000Y-67654000D03*
%TD*%
D16*
%TO.P,U4,24,P0-4*%
%TO.N,/Cy.P0-4*%
X164682000Y-90938000D03*
%TO.P,U4,23,P0-5*%
%TO.N,/Cy.P0-5*%
X164680000Y-90264000D03*
%TO.P,U4,22,P0-6*%
%TO.N,/Cy.P0-6*%
X164681000Y-89628000D03*
%TO.P,U4,21,P0-7*%
%TO.N,/Cy.P0-7*%
X164682000Y-89033000D03*
%TO.P,U4,20,P1-1*%
%TO.N,/Cy.P1-1*%
X164681000Y-88358000D03*
%TO.P,U4,19,P1-3*%
%TO.N,/Cy.P1-3*%
X164681000Y-87724000D03*
%TO.P,U4,18,P1-5*%
%TO.N,unconnected-(U4-Pad18)*%
X164681000Y-87093000D03*
%TO.P,U4,17,P1-7*%
%TO.N,unconnected-(U4-Pad17)*%
X164680000Y-86453000D03*
%TO.P,U4,16,D+/SCLK*%
%TO.N,/Cy.D+*%
X164681000Y-85817000D03*
%TO.P,U4,15,D-/SDATA*%
%TO.N,/Cy.D-*%
X164679000Y-85185000D03*
%TO.P,U4,14,VCC*%
%TO.N,/USB.VBUS*%
X164680000Y-84548000D03*
%TO.P,U4,13,XTALOUT*%
%TO.N,unconnected-(U4-Pad13)*%
X164680000Y-83916000D03*
%TO.P,U4,12,XTALIN/P2-1*%
%TO.N,unconnected-(U4-Pad12)*%
X170276000Y-83913000D03*
%TO.P,U4,11,VREG/P2-0*%
%TO.N,/Cy.VREG*%
X170276000Y-84547000D03*
%TO.P,U4,10,VPP*%
%TO.N,unconnected-(U4-Pad10)*%
X170277000Y-85183000D03*
%TO.P,U4,9,VSS*%
%TO.N,/GND*%
X170276000Y-85817000D03*
%TO.P,U4,8,P1-6*%
%TO.N,unconnected-(U4-Pad8)*%
X170276000Y-86453000D03*
%TO.P,U4,7,P1-4*%
%TO.N,unconnected-(U4-Pad7)*%
X170276000Y-87089000D03*
%TO.P,U4,6,P1-2*%
%TO.N,/Cy.P1-2*%
X170278000Y-87723000D03*
%TO.P,U4,5,P1-0*%
%TO.N,/Cy.P1-0*%
X170277000Y-88359000D03*
%TO.P,U4,4,P0-3*%
%TO.N,/Cy.P0-3*%
X170277000Y-89033000D03*
%TO.P,U4,3,P0-2*%
%TO.N,/Cy.P0-2*%
X170275000Y-89627000D03*
%TO.P,U4,2,P0-1*%
%TO.N,/CY.P0-1*%
X170277000Y-90263000D03*
%TO.P,U4,1,P0-0*%
%TO.N,/Cy.P0-0*%
X170275000Y-90941000D03*
%TD*%
D17*
%TO.P,C5,2*%
%TO.N,/GND*%
X169967000Y-79273500D03*
%TO.P,C5,1*%
%TO.N,/USB.VBUS*%
X167943000Y-79274500D03*
%TD*%
%TO.P,C3,2*%
%TO.N,/VCC*%
X151155000Y-115862500D03*
%TO.P,C3,1*%
%TO.N,/GND*%
X149131000Y-115863500D03*
%TD*%
%TO.P,C2,2*%
%TO.N,/GND*%
X146392000Y-94553500D03*
%TO.P,C2,1*%
%TO.N,/NDS.Reset*%
X144368000Y-94554500D03*
%TD*%
%TO.P,R1,2*%
%TO.N,/VCC*%
X141551000Y-94553000D03*
%TO.P,R1,1*%
%TO.N,/Button*%
X139527000Y-94554000D03*
%TD*%
D18*
%TO.P,R6,2*%
%TO.N,/Cy.D-*%
X162385000Y-81692000D03*
%TO.P,R6,1*%
%TO.N,/Cy.VREG*%
X162384000Y-79668000D03*
%TD*%
%TO.P,C6,2*%
%TO.N,/VCC*%
X175720000Y-79909000D03*
%TO.P,C6,1*%
%TO.N,/GND*%
X175719000Y-77885000D03*
%TD*%
%TO.P,R2,2*%
%TO.N,/VCC*%
X171434000Y-113525000D03*
%TO.P,R2,1*%
%TO.N,/NDS.Reset*%
X171433000Y-111501000D03*
%TD*%
%TO.P,R3,2*%
%TO.N,/VCC*%
X174054000Y-113521000D03*
%TO.P,R3,1*%
%TO.N,/Switch*%
X174053000Y-111497000D03*
%TD*%
%TO.P,C4,2*%
%TO.N,/GND*%
X174017000Y-109080000D03*
%TO.P,C4,1*%
%TO.N,/VCC*%
X174016000Y-107056000D03*
%TD*%
%TO.P,R4,2*%
%TO.N,/VCC*%
X174015000Y-103958000D03*
%TO.P,R4,1*%
%TO.N,/NDS.D6*%
X174014000Y-101934000D03*
%TD*%
%TO.P,R5,2*%
%TO.N,/40MHz.Pin2*%
X176433000Y-97093000D03*
%TO.P,R5,1*%
%TO.N,/40MHz.Pin1*%
X176432000Y-95069000D03*
%TD*%
%TO.P,C1,2*%
%TO.N,/VCC*%
X125835000Y-106539000D03*
%TO.P,C1,1*%
%TO.N,/GND*%
X125834000Y-104515000D03*
%TD*%
D19*
%TO.P,DrillHoles,1*%
%TO.N,N/C*%
X127221000Y-117246000D03*
%TO.P,DrillHoles,2*%
X125993000Y-69391000D03*
%TO.P,DrillHoles,3*%
X176038000Y-69386000D03*
%TO.P,DrillHoles,4*%
X175285900Y-117048700D03*
%TD*%
D20*
%TO.P,U3,20*%
%TO.N,N/C*%
X135516000Y-81730000D03*
%TO.P,U3,21*%
X166590000Y-81734000D03*
%TD*%
D21*
%TO.P,SW1,4,4*%
%TO.N,/GND*%
X141637000Y-68599000D03*
D22*
%TO.P,SW1,3,3*%
X140278000Y-66491000D03*
%TO.P,SW1,2,2*%
%TO.N,/Button*%
X135711000Y-66809000D03*
D21*
%TO.P,SW1,1,1*%
%TO.N,unconnected-(SW1-Pad1)*%
X134808000Y-69065000D03*
%TD*%
D23*
%TO.P,J2,1,A*%
%TO.N,/GND*%
X163254000Y-70184000D03*
%TO.P,J2,2,B*%
%TO.N,/Switch*%
X166198000Y-70421000D03*
%TO.P,J2,3,C*%
%TO.N,unconnected-(J2-Pad3)*%
X169095000Y-70697000D03*
%TO.P,J2,4,Case_GND*%
%TO.N,unconnected-(J2-Pad4)*%
X159809000Y-69863000D03*
%TO.P,J2,5,Case_GND*%
%TO.N,unconnected-(J2-Pad5)*%
X172509200Y-70935000D03*
%TD*%
D24*
%TO.P,U1,48,A16*%
%TO.N,/SST.A16*%
X127902550Y-112019501D03*
%TO.P,U1,47,NC_9*%
%TO.N,unconnected-(U1-Pad47)*%
X127902550Y-111519500D03*
%TO.P,U1,46,VSS_2*%
%TO.N,/GND*%
X127902550Y-111019501D03*
%TO.P,U1,45,DQ15*%
%TO.N,/AD15*%
X127902550Y-110519499D03*
%TO.P,U1,44,DQ7*%
%TO.N,/AD7*%
X127902550Y-110019500D03*
%TO.P,U1,43,DQ14*%
%TO.N,/AD14*%
X127902550Y-109519501D03*
%TO.P,U1,42,DQ6*%
%TO.N,/AD6*%
X127902550Y-109019500D03*
%TO.P,U1,41,DQ13*%
%TO.N,/AD13*%
X127902550Y-108519501D03*
%TO.P,U1,40,DQ5*%
%TO.N,/AD5*%
X127902550Y-108019499D03*
%TO.P,U1,39,DQ12*%
%TO.N,/AD12*%
X127902550Y-107519500D03*
%TO.P,U1,38,DQ4*%
%TO.N,/AD4*%
X127902550Y-107019501D03*
%TO.P,U1,37,VDD*%
%TO.N,/VCC*%
X127902550Y-106519500D03*
%TO.P,U1,36,DQ11*%
%TO.N,/AD11*%
X127902550Y-106019500D03*
%TO.P,U1,35,DQ3*%
%TO.N,/AD3*%
X127902550Y-105519502D03*
%TO.P,U1,34,DQ10*%
%TO.N,/AD10*%
X127902550Y-105019500D03*
%TO.P,U1,33,DQ2*%
%TO.N,/AD2*%
X127902550Y-104519501D03*
%TO.P,U1,32,DQ9*%
%TO.N,/AD9*%
X127902550Y-104019499D03*
%TO.P,U1,31,DQ1*%
%TO.N,/AD1*%
X127902550Y-103519500D03*
%TO.P,U1,30,DQ8*%
%TO.N,/AD8*%
X127902550Y-103019501D03*
%TO.P,U1,29,DQ0*%
%TO.N,/AD0*%
X127902550Y-102519500D03*
%TO.P,U1,28,OE#*%
%TO.N,/SST.OE*%
X127902550Y-102019501D03*
%TO.P,U1,27,VSS_1*%
%TO.N,/GND*%
X127902550Y-101519499D03*
%TO.P,U1,26,CE#*%
%TO.N,/SST.CE*%
X127902550Y-101019500D03*
%TO.P,U1,25,A0*%
%TO.N,/SST.A0*%
X127902550Y-100519501D03*
%TO.P,U1,24,A1*%
%TO.N,/SST.A1*%
X147600250Y-100519499D03*
%TO.P,U1,23,A2*%
%TO.N,/SST.A2*%
X147600250Y-101019500D03*
%TO.P,U1,22,A3*%
%TO.N,/SST.A3*%
X147600250Y-101519499D03*
%TO.P,U1,21,A4*%
%TO.N,/SST.A4*%
X147600250Y-102019501D03*
%TO.P,U1,20,A5*%
%TO.N,/SST.A5*%
X147600250Y-102519500D03*
%TO.P,U1,19,A6*%
%TO.N,/SST.A6*%
X147600250Y-103019499D03*
%TO.P,U1,18,A7*%
%TO.N,/SST.A7*%
X147600250Y-103519500D03*
%TO.P,U1,17,A17*%
%TO.N,/SST.A17*%
X147600250Y-104019499D03*
%TO.P,U1,16,A18*%
%TO.N,/SST.A18*%
X147600250Y-104519501D03*
%TO.P,U1,15,NC_6*%
%TO.N,unconnected-(U1-Pad15)*%
X147600250Y-105019500D03*
%TO.P,U1,14,NC_5*%
%TO.N,unconnected-(U1-Pad14)*%
X147600250Y-105519499D03*
%TO.P,U1,13,NC_4*%
%TO.N,unconnected-(U1-Pad13)*%
X147600250Y-106019500D03*
%TO.P,U1,12,NC_3*%
%TO.N,unconnected-(U1-Pad12)*%
X147600250Y-106519500D03*
%TO.P,U1,11,WE#*%
%TO.N,/SST.WE*%
X147600250Y-107019501D03*
%TO.P,U1,10,NC_2*%
%TO.N,unconnected-(U1-Pad10)*%
X147600250Y-107519500D03*
%TO.P,U1,9,NC_1*%
%TO.N,unconnected-(U1-Pad9)*%
X147600250Y-108019499D03*
%TO.P,U1,8,A8*%
%TO.N,/SST.A8*%
X147600250Y-108519501D03*
%TO.P,U1,7,A9*%
%TO.N,/SST.A9*%
X147600250Y-109019500D03*
%TO.P,U1,6,A10*%
%TO.N,/SST.A10*%
X147600250Y-109519501D03*
%TO.P,U1,5,A11*%
%TO.N,/SST.A11*%
X147600250Y-110019500D03*
%TO.P,U1,4,A12*%
%TO.N,/SST.A12*%
X147600250Y-110519499D03*
%TO.P,U1,3,A13*%
%TO.N,/SST.A13*%
X147600250Y-111019501D03*
%TO.P,U1,2,A14*%
%TO.N,/SST.A14*%
X147600250Y-111519500D03*
%TO.P,U1,1,A15*%
%TO.N,/SST.A15*%
X147600250Y-112019499D03*
%TD*%
D25*
%TO.P,J4,32,GND*%
%TO.N,/GND*%
X127844500Y-75079000D03*
%TO.P,J4,31,/REQ*%
%TO.N,/REQ*%
X129348000Y-73572000D03*
%TO.P,J4,30,/CS.SRAM*%
%TO.N,/CS.SRAM*%
X130863000Y-75087000D03*
%TO.P,J4,29,A23*%
%TO.N,/A23*%
X132370000Y-73572000D03*
%TO.P,J4,28,A22*%
%TO.N,/A22*%
X133877000Y-75079000D03*
%TO.P,J4,27,A21*%
%TO.N,/A21*%
X135384000Y-73572000D03*
%TO.P,J4,26,A20*%
%TO.N,/A20*%
X136929000Y-75077000D03*
%TO.P,J4,25,A19*%
%TO.N,/A19*%
X138480000Y-73574000D03*
%TO.P,J4,24,A18*%
%TO.N,/A18*%
X139871000Y-75079000D03*
%TO.P,J4,23,A17*%
%TO.N,/A17*%
X141415000Y-73569000D03*
%TO.P,J4,22,A16*%
%TO.N,/A16*%
X142848000Y-75078000D03*
%TO.P,J4,21,AD15*%
%TO.N,/AD15*%
X144393000Y-73570000D03*
%TO.P,J4,20,AD14*%
%TO.N,/AD14*%
X145861000Y-75080000D03*
%TO.P,J4,19,AD13*%
%TO.N,/AD13*%
X147409000Y-73572000D03*
%TO.P,J4,18,AD12*%
%TO.N,/AD12*%
X148878000Y-75078000D03*
%TO.P,J4,17,AD11*%
%TO.N,/AD11*%
X150423000Y-73571000D03*
%TO.P,J4,16,AD10*%
%TO.N,/AD10*%
X151893000Y-75080000D03*
%TO.P,J4,15,AD9*%
%TO.N,/AD9*%
X153444000Y-73570000D03*
%TO.P,J4,14,AD8*%
%TO.N,/AD8*%
X154830000Y-75079000D03*
%TO.P,J4,13,AD7*%
%TO.N,/AD7*%
X156379800Y-73570900D03*
%TO.P,J4,12,AD6*%
%TO.N,/AD6*%
X157844000Y-75079000D03*
%TO.P,J4,11,AD5*%
%TO.N,/AD5*%
X159396100Y-73570900D03*
%TO.P,J4,10,AD4*%
%TO.N,/AD4*%
X160904200Y-75079000D03*
%TO.P,J4,9,AD3*%
%TO.N,/AD3*%
X162453000Y-73572000D03*
%TO.P,J4,8,AD2*%
%TO.N,/AD2*%
X163879000Y-75078000D03*
%TO.P,J4,7,AD1*%
%TO.N,/AD1*%
X165428600Y-73570900D03*
%TO.P,J4,6,AD0*%
%TO.N,/AD0*%
X166897000Y-75079000D03*
%TO.P,J4,5,/CS.ROM*%
%TO.N,/CS.Rom.Game*%
X168443000Y-73571000D03*
%TO.P,J4,4,/RD*%
%TO.N,/Rd_Game*%
X169913000Y-75077000D03*
%TO.P,J4,3,/WR*%
%TO.N,/Write*%
X171461100Y-73570900D03*
%TO.P,J4,2,Clock*%
%TO.N,unconnected-(J4-Pad2)*%
X172929500Y-75079000D03*
%TO.P,J4,1,+3.3V/+5V*%
%TO.N,/VCC*%
X174476000Y-73571000D03*
%TD*%
D26*
%TO.P,J3,32,GND*%
%TO.N,/GND*%
X174562000Y-126454000D03*
D27*
%TO.P,J3,31,/REQ*%
%TO.N,/REQ*%
X172864000Y-126454000D03*
%TO.P,J3,30,/CS.SRAM*%
%TO.N,/CS.SRAM*%
X171369000Y-126454000D03*
%TO.P,J3,29,A23*%
%TO.N,/A23*%
X169880000Y-126447000D03*
%TO.P,J3,28,A22*%
%TO.N,/A22*%
X168361000Y-126447000D03*
%TO.P,J3,27,A21*%
%TO.N,/A21*%
X166866000Y-126447000D03*
%TO.P,J3,26,A20*%
%TO.N,/A20*%
X165366000Y-126448000D03*
%TO.P,J3,25,A19*%
%TO.N,/A19*%
X163859000Y-126448000D03*
%TO.P,J3,24,A18*%
%TO.N,/A18*%
X162364000Y-126448000D03*
%TO.P,J3,23,A17*%
%TO.N,/A17*%
X160869000Y-126460000D03*
%TO.P,J3,22,A16*%
%TO.N,/A16*%
X159365000Y-126455000D03*
%TO.P,J3,21,AD15*%
%TO.N,/AD15*%
X157870000Y-126455000D03*
%TO.P,J3,20,AD14*%
%TO.N,/AD14*%
X156363000Y-126455000D03*
%TO.P,J3,19,AD13*%
%TO.N,/AD13*%
X154868000Y-126455000D03*
%TO.P,J3,18,AD12*%
%TO.N,/AD12*%
X153362000Y-126455000D03*
%TO.P,J3,17,AD11*%
%TO.N,/AD11*%
X151860000Y-126455000D03*
%TO.P,J3,16,AD10*%
%TO.N,/AD10*%
X150377000Y-126455000D03*
%TO.P,J3,15,AD9*%
%TO.N,/AD9*%
X148870000Y-126455000D03*
%TO.P,J3,14,AD8*%
%TO.N,/AD8*%
X147363000Y-126455000D03*
%TO.P,J3,13,AD7*%
%TO.N,/AD7*%
X145870000Y-126456000D03*
%TO.P,J3,12,AD6*%
%TO.N,/AD6*%
X144363000Y-126456000D03*
%TO.P,J3,11,AD5*%
%TO.N,/AD5*%
X142880000Y-126456000D03*
%TO.P,J3,10,AD4*%
%TO.N,/AD4*%
X141361000Y-126456000D03*
%TO.P,J3,9,AD3*%
%TO.N,/AD3*%
X139862000Y-126452000D03*
%TO.P,J3,8,AD2*%
%TO.N,/AD2*%
X138368000Y-126457000D03*
%TO.P,J3,7,AD1*%
%TO.N,/AD1*%
X136861000Y-126447000D03*
%TO.P,J3,6,AD0*%
%TO.N,/AD0*%
X135366000Y-126447000D03*
%TO.P,J3,5,/CS.ROM*%
%TO.N,/CS.Rom.Sys*%
X133859000Y-126447000D03*
%TO.P,J3,4,/RD*%
%TO.N,/Rd_Sys*%
X132368000Y-126447000D03*
%TO.P,J3,3,/WR*%
%TO.N,/Write*%
X130861000Y-126447000D03*
%TO.P,J3,2,Clock*%
%TO.N,unconnected-(J3-Pad2)*%
X129366000Y-126447000D03*
%TO.P,J3,1,+3.3V/+5V*%
%TO.N,/VCC*%
X127859000Y-126447000D03*
%TD*%
D28*
%TO.N,/CS.SRAM*%
X170103100Y-119573000D03*
%TO.N,/REQ*%
X171191800Y-119773000D03*
%TO.N,/A16*%
X165190000Y-111699600D03*
%TO.N,/A17*%
X162977500Y-118148200D03*
X131140500Y-92069400D03*
%TO.N,/A18*%
X163500700Y-119039500D03*
X128171500Y-96973200D03*
%TO.N,/A19*%
X165359500Y-112699800D03*
%TO.N,/A20*%
X165843200Y-119003600D03*
%TO.N,/A21*%
X167055700Y-119735400D03*
%TO.N,/A22*%
X166030000Y-117049300D03*
%TO.N,/A23*%
X167226700Y-117284000D03*
%TO.N,/Button*%
X139916900Y-95814400D03*
X167177500Y-113783800D03*
X133019800Y-85637400D03*
%TO.N,/Switch*%
X175087600Y-92536500D03*
X172625900Y-109128500D03*
%TO.N,/Write*%
X150470700Y-84971400D03*
X170603600Y-109755500D03*
%TO.N,/CS.Rom.Sys*%
X134043900Y-121956000D03*
X169531800Y-109829400D03*
%TO.N,/Rd_Sys*%
X139821700Y-114803200D03*
X155817200Y-112051800D03*
%TO.N,/CS.Rom.Game*%
X159141800Y-93652000D03*
X161855900Y-101209600D03*
%TO.N,/Rd_Game*%
X173376200Y-89351900D03*
X166432400Y-107337400D03*
%TO.N,/Cy.P1-0*%
X166918900Y-103452600D03*
X171672500Y-88966800D03*
%TO.N,/Cy.P1-2*%
X162828100Y-94400000D03*
X166911200Y-101856100D03*
%TO.N,/Cy.P1-3*%
X166728400Y-89428400D03*
X170020400Y-101735600D03*
%TO.N,/Cy.P1-1*%
X166084100Y-90237800D03*
X170528900Y-99846700D03*
%TO.N,/NDS.D7*%
X169807300Y-102745100D03*
%TO.N,/NDS.D6*%
X171527400Y-101582900D03*
%TO.N,/NDS.CS2*%
X147480700Y-90915300D03*
X149031900Y-91786900D03*
X163569900Y-103143800D03*
%TO.N,/NDS.Reset*%
X144943900Y-90991900D03*
X145823600Y-97311000D03*
X169354200Y-113872900D03*
%TO.N,/NDS.Clk*%
X164670200Y-104445900D03*
%TO.N,/Cy.D+*%
X169814500Y-77782000D03*
X169617300Y-72398300D03*
%TO.N,/Cy.D-*%
X173570800Y-68295900D03*
X166129600Y-83448900D03*
%TO.N,/USB.VBUS*%
X167931400Y-83185000D03*
X177132700Y-73144300D03*
%TO.N,/SST.A13*%
X145989600Y-109878000D03*
X139890500Y-109878000D03*
X140011400Y-101320200D03*
X130440400Y-93052700D03*
X138659600Y-83418700D03*
X148047400Y-85553400D03*
X149230200Y-86366200D03*
X155395800Y-86366200D03*
X155395800Y-97126500D03*
X159837600Y-102439600D03*
%TO.N,/SST.A11*%
X146364400Y-108153800D03*
X150157200Y-107355600D03*
%TO.N,/SST.WE*%
X145633300Y-101649400D03*
X141648500Y-101378900D03*
X141648500Y-97433800D03*
X171188800Y-114891700D03*
X173329300Y-115198700D03*
X176627200Y-115198700D03*
X172730500Y-99177500D03*
X167218000Y-93997000D03*
X165201600Y-96013400D03*
X156234100Y-92526700D03*
%TO.N,/SST.A18*%
X151022400Y-111280700D03*
X143406900Y-111710500D03*
X143406900Y-104514000D03*
X146395700Y-104514000D03*
%TO.N,/SST.A17*%
X145695100Y-105779800D03*
X153628100Y-109768500D03*
%TO.N,/SST.A0*%
X135039100Y-88548500D03*
X155711800Y-100463600D03*
%TO.N,/SST.CE*%
X145575800Y-81594700D03*
X157906400Y-81433000D03*
%TO.N,/SST.OE*%
X142958700Y-82201600D03*
X156934200Y-83117800D03*
%TO.N,/AD0*%
X155879000Y-82140000D03*
X142930200Y-83201800D03*
X144545700Y-102152400D03*
X132436700Y-95373500D03*
X144545700Y-109143900D03*
X153651600Y-110847800D03*
%TO.N,/AD8*%
X135266900Y-97352600D03*
X147816000Y-121434800D03*
X124798800Y-103536500D03*
%TO.N,/AD1*%
X137629500Y-109173500D03*
X146942300Y-86437400D03*
X153644400Y-111848000D03*
X143832400Y-114597000D03*
X129251200Y-103151600D03*
%TO.N,/AD9*%
X134919800Y-99153000D03*
X156922400Y-113393200D03*
X130263200Y-102317500D03*
%TO.N,/AD2*%
X143717900Y-81370000D03*
X149344500Y-112871000D03*
X130379500Y-104148600D03*
%TO.N,/AD10*%
X144422300Y-82079800D03*
X155197400Y-118996700D03*
X130655700Y-106423600D03*
%TO.N,/AD3*%
X140066900Y-112561400D03*
X153661300Y-80443000D03*
X147979500Y-113875800D03*
X129555900Y-105442500D03*
%TO.N,/AD11*%
X157522300Y-118217500D03*
X134137100Y-103813900D03*
X131929200Y-103978200D03*
%TO.N,/VCC*%
X163777000Y-97743900D03*
X172189900Y-110115600D03*
X159686100Y-101239600D03*
X142298600Y-91756300D03*
X170605700Y-107317800D03*
%TO.N,/AD4*%
X141638800Y-113462900D03*
X129792600Y-107019500D03*
X146722700Y-114794500D03*
%TO.N,/AD12*%
X129116800Y-107792100D03*
X156886200Y-119419500D03*
X132283400Y-109036100D03*
%TO.N,/AD5*%
X126680000Y-108063200D03*
X146639600Y-118995400D03*
X133722500Y-113582600D03*
%TO.N,/AD13*%
X130834300Y-110732600D03*
X155458800Y-121118600D03*
%TO.N,/AD6*%
X148496400Y-118563900D03*
X131314500Y-111672500D03*
X132898900Y-112825400D03*
%TO.N,/AD14*%
X130636300Y-96012100D03*
X126687200Y-109168400D03*
X156775000Y-121867800D03*
%TO.N,/AD7*%
X145355600Y-121923900D03*
X131241000Y-116460700D03*
%TO.N,/AD15*%
X129936100Y-97679500D03*
X158011400Y-120989400D03*
X126419800Y-110231300D03*
%TO.N,/GND*%
X168227000Y-113786500D03*
X146392000Y-93287600D03*
X158124800Y-116386200D03*
X161468900Y-118960200D03*
X174562000Y-121953900D03*
X126798800Y-115313600D03*
X153447800Y-113655400D03*
X171764900Y-87702700D03*
X175088500Y-90081000D03*
X170330000Y-95228100D03*
X135401700Y-85149700D03*
X171962800Y-119088800D03*
%TO.N,/SST.A16*%
X128805800Y-115128900D03*
X137583500Y-119808600D03*
%TD*%
D29*
%TO.N,/GND*%
X126857500Y-111020000D02*
X126848900Y-111028600D01*
X127902000Y-111020000D02*
X126857500Y-111020000D01*
D30*
%TO.N,/Cy.VREG*%
X169050200Y-84411300D02*
X169185900Y-84547000D01*
X169050200Y-78801200D02*
X169050200Y-84411300D01*
X168573300Y-78324300D02*
X169050200Y-78801200D01*
X162927600Y-78324300D02*
X168573300Y-78324300D01*
X162384000Y-78867900D02*
X162927600Y-78324300D01*
X162384000Y-79668000D02*
X162384000Y-78867900D01*
X170276000Y-84547000D02*
X169185900Y-84547000D01*
%TO.N,/CS.SRAM*%
X170103100Y-120022700D02*
X170103100Y-119573000D01*
X171369000Y-121288600D02*
X170103100Y-120022700D01*
X171369000Y-126454000D02*
X171369000Y-121288600D01*
%TO.N,/REQ*%
X172864000Y-126454000D02*
X172864000Y-122263900D01*
X172863900Y-122263900D02*
X172864000Y-122263900D01*
X172863900Y-121445100D02*
X172863900Y-122263900D01*
X171191800Y-119773000D02*
X172863900Y-121445100D01*
%TO.N,/A16*%
X159365000Y-126455000D02*
X159365000Y-122264900D01*
X162277000Y-115481000D02*
X162277000Y-115981100D01*
X162277000Y-115481000D02*
X162277000Y-114981000D01*
X162277000Y-114981000D02*
X162277000Y-113980900D01*
X162327100Y-116031200D02*
X162277000Y-115981100D01*
X162327100Y-117538100D02*
X162327100Y-116031200D01*
X162277300Y-117587900D02*
X162327100Y-117538100D01*
X162277300Y-118703900D02*
X162277300Y-117587900D01*
X162176700Y-118804500D02*
X162277300Y-118703900D01*
X162176700Y-119453200D02*
X162176700Y-118804500D01*
X159365000Y-122264900D02*
X162176700Y-119453200D01*
X162908700Y-113980900D02*
X165190000Y-111699600D01*
X162277000Y-113980900D02*
X162908700Y-113980900D01*
%TO.N,/A17*%
X160869000Y-126460000D02*
X160869000Y-122269900D01*
X162711800Y-118148200D02*
X162977500Y-118148200D01*
X162677400Y-118182600D02*
X162711800Y-118148200D01*
X162677400Y-120461500D02*
X162677400Y-118182600D01*
X160869000Y-122269900D02*
X162677400Y-120461500D01*
X162777000Y-118078200D02*
X162777000Y-114981000D01*
X162677400Y-118177800D02*
X162777000Y-118078200D01*
X162677400Y-118182600D02*
X162677400Y-118177800D01*
X131140500Y-91455800D02*
X131140500Y-92069400D01*
X134859000Y-87737300D02*
X131140500Y-91455800D01*
X135331300Y-87737300D02*
X134859000Y-87737300D01*
X140296200Y-82772400D02*
X135331300Y-87737300D01*
X140296200Y-81151600D02*
X140296200Y-82772400D01*
X141415000Y-80032800D02*
X140296200Y-81151600D01*
X141415000Y-73569000D02*
X141415000Y-80032800D01*
%TO.N,/A18*%
X163425800Y-120685100D02*
X163425800Y-118964600D01*
X162364000Y-121746900D02*
X163425800Y-120685100D01*
X162364000Y-126448000D02*
X162364000Y-121746900D01*
X163425800Y-118964600D02*
X163500700Y-119039500D01*
X163277000Y-116853200D02*
X163277000Y-114981000D01*
X163372300Y-116948500D02*
X163277000Y-116853200D01*
X163372300Y-117552900D02*
X163372300Y-116948500D01*
X163677600Y-117858200D02*
X163372300Y-117552900D01*
X163677600Y-118438200D02*
X163677600Y-117858200D01*
X163372300Y-118743500D02*
X163677600Y-118438200D01*
X163372300Y-118911100D02*
X163372300Y-118743500D01*
X163425800Y-118964600D02*
X163372300Y-118911100D01*
X128171500Y-93205200D02*
X128171500Y-96973200D01*
X134439600Y-86937100D02*
X128171500Y-93205200D01*
X134635000Y-86937100D02*
X134439600Y-86937100D01*
X137959500Y-83612600D02*
X134635000Y-86937100D01*
X137959500Y-76990500D02*
X137959500Y-83612600D01*
X139871000Y-75079000D02*
X137959500Y-76990500D01*
%TO.N,/A19*%
X163777000Y-114480900D02*
X163777000Y-113980900D01*
X163777000Y-114480900D02*
X163777000Y-114981000D01*
X164078400Y-113980900D02*
X165359500Y-112699800D01*
X163777000Y-113980900D02*
X164078400Y-113980900D01*
X163859000Y-126448000D02*
X163859000Y-122257900D01*
X163777000Y-117391800D02*
X163777000Y-114981000D01*
X164077700Y-117692500D02*
X163777000Y-117391800D01*
X164077700Y-117998100D02*
X164077700Y-117692500D01*
X164159600Y-118080000D02*
X164077700Y-117998100D01*
X164159600Y-118708300D02*
X164159600Y-118080000D01*
X164200800Y-118749500D02*
X164159600Y-118708300D01*
X164200800Y-119329500D02*
X164200800Y-118749500D01*
X164159600Y-119370700D02*
X164200800Y-119329500D01*
X164159600Y-121957300D02*
X164159600Y-119370700D01*
X163859000Y-122257900D02*
X164159600Y-121957300D01*
%TO.N,/A20*%
X164277000Y-114981000D02*
X164277000Y-115981100D01*
X165485700Y-119003600D02*
X165843200Y-119003600D01*
X165366000Y-119123300D02*
X165485700Y-119003600D01*
X165366000Y-126448000D02*
X165366000Y-119123300D01*
X164277000Y-117326000D02*
X164277000Y-115981100D01*
X164477800Y-117526800D02*
X164277000Y-117326000D01*
X164477800Y-117549600D02*
X164477800Y-117526800D01*
X165485700Y-118557500D02*
X164477800Y-117549600D01*
X165485700Y-119003600D02*
X165485700Y-118557500D01*
%TO.N,/A21*%
X166866000Y-119925100D02*
X167055700Y-119735400D01*
X166866000Y-126447000D02*
X166866000Y-119925100D01*
X164777000Y-116947400D02*
X164777000Y-114981000D01*
X167017300Y-119187700D02*
X164777000Y-116947400D01*
X167017300Y-119697100D02*
X167017300Y-119187700D01*
X167017400Y-119697100D02*
X167017300Y-119697100D01*
X167055700Y-119735400D02*
X167017400Y-119697100D01*
%TO.N,/A22*%
X168361000Y-119412300D02*
X168361000Y-126447000D01*
X166030000Y-117081300D02*
X168361000Y-119412300D01*
X166030000Y-117049300D02*
X166030000Y-117081300D01*
X165277000Y-116296300D02*
X165277000Y-114981000D01*
X166030000Y-117049300D02*
X165277000Y-116296300D01*
%TO.N,/A23*%
X169880000Y-126447000D02*
X169880000Y-122256900D01*
X167226700Y-117712200D02*
X167226700Y-117284000D01*
X169880000Y-120365500D02*
X167226700Y-117712200D01*
X169880000Y-122256900D02*
X169880000Y-120365500D01*
X165777000Y-114981000D02*
X165777000Y-115981100D01*
X165951900Y-115981100D02*
X165777000Y-115981100D01*
X167226700Y-117255900D02*
X165951900Y-115981100D01*
X167226700Y-117284000D02*
X167226700Y-117255900D01*
%TO.N,/Button*%
X139606600Y-95504100D02*
X139916900Y-95814400D01*
X139527000Y-95504100D02*
X139606600Y-95504100D01*
X139527000Y-94554000D02*
X139527000Y-95504100D01*
X167177500Y-112580400D02*
X167226900Y-112531000D01*
X167177500Y-113783800D02*
X167177500Y-112580400D01*
X168227000Y-112531000D02*
X167226900Y-112531000D01*
X126578300Y-79195900D02*
X133019800Y-85637400D01*
X126578300Y-74526600D02*
X126578300Y-79195900D01*
X134295900Y-66809000D02*
X126578300Y-74526600D01*
X135711000Y-66809000D02*
X134295900Y-66809000D01*
%TO.N,/Switch*%
X174053000Y-111497000D02*
X174053000Y-110696900D01*
X169394000Y-111531000D02*
X168227000Y-111531000D01*
X170469400Y-110455600D02*
X169394000Y-111531000D01*
X170924400Y-110455600D02*
X170469400Y-110455600D01*
X171489800Y-109890200D02*
X170924400Y-110455600D01*
X171489800Y-109825700D02*
X171489800Y-109890200D01*
X171900000Y-109415500D02*
X171489800Y-109825700D01*
X172625900Y-109415500D02*
X171900000Y-109415500D01*
X172625900Y-109128500D02*
X172625900Y-109415500D01*
X173907300Y-110696900D02*
X174053000Y-110696900D01*
X172625900Y-109415500D02*
X173907300Y-110696900D01*
X177425300Y-90198800D02*
X175087600Y-92536500D01*
X177425300Y-74712100D02*
X177425300Y-90198800D01*
X174998300Y-72285100D02*
X177425300Y-74712100D01*
X171950000Y-72285100D02*
X174998300Y-72285100D01*
X171159100Y-71494200D02*
X171950000Y-72285100D01*
X171159100Y-70787600D02*
X171159100Y-71494200D01*
X169708200Y-69336700D02*
X171159100Y-70787600D01*
X167282300Y-69336700D02*
X169708200Y-69336700D01*
X166198000Y-70421000D02*
X167282300Y-69336700D01*
%TO.N,/Write*%
X169328100Y-111031000D02*
X168227000Y-111031000D01*
X170603600Y-109755500D02*
X169328100Y-111031000D01*
X150470700Y-86156700D02*
X150470700Y-84971400D01*
X147958300Y-88669100D02*
X150470700Y-86156700D01*
X145145100Y-88669100D02*
X147958300Y-88669100D01*
X143007400Y-90806800D02*
X145145100Y-88669100D01*
X143007400Y-92037600D02*
X143007400Y-90806800D01*
X142680200Y-92364800D02*
X143007400Y-92037600D01*
X142680200Y-101455800D02*
X142680200Y-92364800D01*
X140624400Y-103511600D02*
X142680200Y-101455800D01*
X140624400Y-110708000D02*
X140624400Y-103511600D01*
X130861000Y-120471400D02*
X140624400Y-110708000D01*
X130861000Y-126447000D02*
X130861000Y-120471400D01*
%TO.N,/CS.Rom.Sys*%
X168227000Y-110031000D02*
X169227100Y-110031000D01*
X169330200Y-110031000D02*
X169531800Y-109829400D01*
X169227100Y-110031000D02*
X169330200Y-110031000D01*
X133859000Y-126447000D02*
X133859000Y-122256900D01*
X133859000Y-122140900D02*
X134043900Y-121956000D01*
X133859000Y-122256900D02*
X133859000Y-122140900D01*
%TO.N,/Rd_Sys*%
X158338000Y-109531000D02*
X168227000Y-109531000D01*
X155817200Y-112051800D02*
X158338000Y-109531000D01*
X132368000Y-126447000D02*
X132368000Y-122256900D01*
X132368000Y-122256900D02*
X139821700Y-114803200D01*
%TO.N,/CS.Rom.Game*%
X167135600Y-109031000D02*
X168227000Y-109031000D01*
X161855900Y-103751300D02*
X167135600Y-109031000D01*
X161855900Y-101209600D02*
X161855900Y-103751300D01*
X159141800Y-80731800D02*
X159141800Y-93652000D01*
X162408900Y-77464700D02*
X159141800Y-80731800D01*
X166268900Y-77464700D02*
X162408900Y-77464700D01*
X168443000Y-75290600D02*
X166268900Y-77464700D01*
X168443000Y-73571000D02*
X168443000Y-75290600D01*
%TO.N,/Rd_Game*%
X166432400Y-107736500D02*
X167226900Y-108531000D01*
X166432400Y-107337400D02*
X166432400Y-107736500D01*
X168227000Y-108531000D02*
X167226900Y-108531000D01*
X173376200Y-78540200D02*
X169913000Y-75077000D01*
X173376200Y-89351900D02*
X173376200Y-78540200D01*
%TO.N,/Loop*%
X167226900Y-107531000D02*
X167226900Y-106531000D01*
X168227000Y-107531000D02*
X167226900Y-107531000D01*
X168227000Y-106531000D02*
X167226900Y-106531000D01*
%TO.N,/Cy.P1-0*%
X171367100Y-88661400D02*
X171672500Y-88966800D01*
X171367100Y-88359000D02*
X171367100Y-88661400D01*
X170277000Y-88359000D02*
X171367100Y-88359000D01*
X168227000Y-103031000D02*
X167226900Y-103031000D01*
X167226900Y-103144600D02*
X166918900Y-103452600D01*
X167226900Y-103031000D02*
X167226900Y-103144600D01*
%TO.N,/Cy.P1-2*%
X170278000Y-87723000D02*
X169187900Y-87723000D01*
X168227000Y-102531000D02*
X167226900Y-102531000D01*
X167226900Y-102171800D02*
X166911200Y-101856100D01*
X167226900Y-102531000D02*
X167226900Y-102171800D01*
X162938800Y-94400000D02*
X162828100Y-94400000D01*
X168403900Y-88934900D02*
X162938800Y-94400000D01*
X168403900Y-88507000D02*
X168403900Y-88934900D01*
X169187900Y-87723000D02*
X168403900Y-88507000D01*
%TO.N,/Cy.P1-3*%
X164681000Y-87724000D02*
X165771100Y-87724000D01*
X169725000Y-102031000D02*
X168227000Y-102031000D01*
X170020400Y-101735600D02*
X169725000Y-102031000D01*
X166728400Y-88681300D02*
X166728400Y-89428400D01*
X165771100Y-87724000D02*
X166728400Y-88681300D01*
%TO.N,/Cy.P1-1*%
X168227000Y-101531000D02*
X169227100Y-101531000D01*
X164681000Y-88358000D02*
X165771100Y-88358000D01*
X165998600Y-90152300D02*
X166084100Y-90237800D01*
X165998600Y-88585500D02*
X165998600Y-90152300D01*
X165771100Y-88358000D02*
X165998600Y-88585500D01*
X170528900Y-100229200D02*
X170528900Y-99846700D01*
X169227100Y-101531000D02*
X170528900Y-100229200D01*
%TO.N,/40MHz.Pin1*%
X176432000Y-95069000D02*
X176432000Y-94268900D01*
X176832000Y-95869100D02*
X176432000Y-95869100D01*
X177383200Y-96420300D02*
X176832000Y-95869100D01*
X177383200Y-97758400D02*
X177383200Y-96420300D01*
X177202400Y-97939200D02*
X177383200Y-97758400D01*
X175450300Y-97939200D02*
X177202400Y-97939200D01*
X175247100Y-97736000D02*
X175450300Y-97939200D01*
X172947000Y-97736000D02*
X175247100Y-97736000D01*
X176432000Y-95069000D02*
X176432000Y-95869100D01*
X165777000Y-100410900D02*
X165777000Y-99081000D01*
X166117200Y-100751100D02*
X165777000Y-100410900D01*
X166481600Y-100751100D02*
X166117200Y-100751100D01*
X167261200Y-99971500D02*
X166481600Y-100751100D01*
X167261200Y-96741100D02*
X167261200Y-99971500D01*
X170507400Y-93494900D02*
X167261200Y-96741100D01*
X175658000Y-93494900D02*
X170507400Y-93494900D01*
X176432000Y-94268900D02*
X175658000Y-93494900D01*
%TO.N,/40MHz.Pin2*%
X176033000Y-96292900D02*
X176433000Y-96292900D01*
X175247100Y-95507000D02*
X176033000Y-96292900D01*
X175247100Y-94490000D02*
X175247100Y-95507000D01*
X172947000Y-94490000D02*
X175247100Y-94490000D01*
X176433000Y-97093000D02*
X176433000Y-96292900D01*
X172947000Y-94490000D02*
X170646900Y-94490000D01*
X165277000Y-99910900D02*
X165277000Y-99081000D01*
X165376900Y-100010800D02*
X165277000Y-99910900D01*
X165376900Y-100576600D02*
X165376900Y-100010800D01*
X165951500Y-101151200D02*
X165376900Y-100576600D01*
X166647300Y-101151200D02*
X165951500Y-101151200D01*
X167661300Y-100137200D02*
X166647300Y-101151200D01*
X167661300Y-96906800D02*
X167661300Y-100137200D01*
X170078100Y-94490000D02*
X167661300Y-96906800D01*
X170646900Y-94490000D02*
X170078100Y-94490000D01*
%TO.N,/Cy.P0-0*%
X170275000Y-90941000D02*
X169184900Y-90941000D01*
X162777000Y-97348900D02*
X169184900Y-90941000D01*
X162777000Y-99081000D02*
X162777000Y-97348900D01*
%TO.N,/CY.P0-1*%
X162277000Y-97172900D02*
X162277000Y-99081000D01*
X169186900Y-90263000D02*
X162277000Y-97172900D01*
X170277000Y-90263000D02*
X169186900Y-90263000D01*
%TO.N,/Cy.P0-2*%
X170275000Y-89627000D02*
X169184900Y-89627000D01*
X161777000Y-97034900D02*
X161777000Y-99081000D01*
X169184900Y-89627000D02*
X161777000Y-97034900D01*
%TO.N,/Cy.P0-3*%
X170277000Y-89033000D02*
X169186900Y-89033000D01*
X161277000Y-96942900D02*
X161277000Y-99081000D01*
X169186900Y-89033000D02*
X161277000Y-96942900D01*
%TO.N,/Cy.P0-4*%
X164682000Y-90938000D02*
X163591900Y-90938000D01*
X160777000Y-99081000D02*
X160777000Y-98080900D01*
X163591900Y-92479500D02*
X163591900Y-90938000D01*
X160777000Y-95294400D02*
X163591900Y-92479500D01*
X160777000Y-98080900D02*
X160777000Y-95294400D01*
%TO.N,/Cy.P0-5*%
X164680000Y-90264000D02*
X163589900Y-90264000D01*
X162251800Y-91602100D02*
X163589900Y-90264000D01*
X162251800Y-93253800D02*
X162251800Y-91602100D01*
X160277000Y-95228600D02*
X162251800Y-93253800D01*
X160277000Y-99081000D02*
X160277000Y-95228600D01*
%TO.N,/Cy.P0-6*%
X159777000Y-95162800D02*
X159777000Y-99081000D01*
X161710500Y-93229300D02*
X159777000Y-95162800D01*
X161710500Y-91508400D02*
X161710500Y-93229300D01*
X163590900Y-89628000D02*
X161710500Y-91508400D01*
X164681000Y-89628000D02*
X163590900Y-89628000D01*
%TO.N,/Cy.P0-7*%
X164682000Y-89033000D02*
X163591900Y-89033000D01*
X159891200Y-92733700D02*
X163591900Y-89033000D01*
X159891200Y-93917000D02*
X159891200Y-92733700D01*
X159277000Y-94531200D02*
X159891200Y-93917000D01*
X159277000Y-99081000D02*
X159277000Y-94531200D01*
%TO.N,/NDS.D7*%
X168227000Y-104031000D02*
X169227100Y-104031000D01*
X169227100Y-103325300D02*
X169227100Y-104031000D01*
X169807300Y-102745100D02*
X169227100Y-103325300D01*
%TO.N,/NDS.D6*%
X168227000Y-105031000D02*
X169227100Y-105031000D01*
X174014000Y-101934000D02*
X173063900Y-101934000D01*
X171527400Y-101582900D02*
X171897200Y-101952600D01*
X171915800Y-101934000D02*
X171897200Y-101952600D01*
X173063900Y-101934000D02*
X171915800Y-101934000D01*
X169227100Y-104622700D02*
X169227100Y-105031000D01*
X171897200Y-101952600D02*
X169227100Y-104622700D01*
%TO.N,/NDS.CS2*%
X163569900Y-104393300D02*
X163569900Y-103143800D01*
X164707600Y-105531000D02*
X163569900Y-104393300D01*
X168227000Y-105531000D02*
X164707600Y-105531000D01*
X148352300Y-91786900D02*
X149031900Y-91786900D01*
X147480700Y-90915300D02*
X148352300Y-91786900D01*
%TO.N,/NDS.Reset*%
X171433000Y-111501000D02*
X170482900Y-111501000D01*
X144368000Y-91567800D02*
X144943900Y-90991900D01*
X144368000Y-93604400D02*
X144368000Y-91567800D01*
X144368000Y-94079400D02*
X144368000Y-93604400D01*
X144368000Y-94079400D02*
X144368000Y-94554500D01*
X144368000Y-95855400D02*
X145823600Y-97311000D01*
X144368000Y-94554500D02*
X144368000Y-95855400D01*
X169354200Y-113872900D02*
X169354200Y-112031000D01*
X169952900Y-112031000D02*
X169354200Y-112031000D01*
X170482900Y-111501000D02*
X169952900Y-112031000D01*
X169354200Y-112031000D02*
X168227000Y-112031000D01*
%TO.N,/NDS.Clk*%
X164755300Y-104531000D02*
X164670200Y-104445900D01*
X168227000Y-104531000D02*
X164755300Y-104531000D01*
%TO.N,/Cy.D+*%
X169680300Y-77916200D02*
X169814500Y-77782000D01*
X162552100Y-77916200D02*
X169680300Y-77916200D01*
X161433800Y-79034500D02*
X162552100Y-77916200D01*
X161433800Y-83659900D02*
X161433800Y-79034500D01*
X163590900Y-85817000D02*
X161433800Y-83659900D01*
X151121400Y-72129500D02*
X151038000Y-72046100D01*
X169348500Y-72129500D02*
X151121400Y-72129500D01*
X169617300Y-72398300D02*
X169348500Y-72129500D01*
X151038000Y-70746000D02*
X151038000Y-72046100D01*
X164681000Y-85817000D02*
X163590900Y-85817000D01*
%TO.N,/Cy.D-*%
X171977600Y-66702700D02*
X173570800Y-68295900D01*
X152881500Y-66702700D02*
X171977600Y-66702700D01*
X151792000Y-67792200D02*
X152881500Y-66702700D01*
X151792000Y-70746000D02*
X151792000Y-67792200D01*
X164679000Y-85185000D02*
X163588900Y-85185000D01*
X162711200Y-82492100D02*
X163588900Y-83369800D01*
X162385000Y-82492100D02*
X162711200Y-82492100D01*
X166050500Y-83369800D02*
X163588900Y-83369800D01*
X166129600Y-83448900D02*
X166050500Y-83369800D01*
X163588900Y-83369800D02*
X163588900Y-85185000D01*
X162385000Y-81692000D02*
X162385000Y-82492100D01*
D31*
%TO.N,/USB.VBUS*%
X165872500Y-84550500D02*
X165870000Y-84548000D01*
X165920300Y-84550500D02*
X165872500Y-84550500D01*
X164680000Y-84548000D02*
X165870000Y-84548000D01*
D32*
X153515100Y-69299900D02*
X152585000Y-69299900D01*
X154452100Y-68362900D02*
X153515100Y-69299900D01*
X172351300Y-68362900D02*
X154452100Y-68362900D01*
X177132700Y-73144300D02*
X172351300Y-68362900D01*
X152585000Y-70750000D02*
X152585000Y-69299900D01*
X166565900Y-84550500D02*
X167931400Y-83185000D01*
X165920300Y-84550500D02*
X166565900Y-84550500D01*
X168151900Y-82964500D02*
X167931400Y-83185000D01*
X168151900Y-80583500D02*
X168151900Y-82964500D01*
X167943000Y-80374600D02*
X168151900Y-80583500D01*
X167943000Y-79274500D02*
X167943000Y-80374600D01*
D30*
%TO.N,/SST.A15*%
X151636700Y-108531000D02*
X152327000Y-108531000D01*
X151252600Y-108915100D02*
X151636700Y-108531000D01*
X151252600Y-109270400D02*
X151252600Y-108915100D01*
X148503500Y-112019500D02*
X151252600Y-109270400D01*
X147600200Y-112019500D02*
X148503500Y-112019500D01*
%TO.N,/SST.A14*%
X150104000Y-109253900D02*
X151326900Y-108031000D01*
X150104000Y-109683300D02*
X150104000Y-109253900D01*
X148267800Y-111519500D02*
X150104000Y-109683300D01*
X147600200Y-111519500D02*
X148267800Y-111519500D01*
X152327000Y-108031000D02*
X151326900Y-108031000D01*
%TO.N,/SST.A13*%
X154679700Y-107597500D02*
X159837600Y-102439600D01*
X154117400Y-107597500D02*
X154679700Y-107597500D01*
X154050900Y-107531000D02*
X154117400Y-107597500D01*
X152327000Y-107531000D02*
X154050900Y-107531000D01*
X147600200Y-111019500D02*
X146696800Y-111019500D01*
X148860200Y-86366200D02*
X148047400Y-85553400D01*
X149230200Y-86366200D02*
X148860200Y-86366200D01*
X155395800Y-97126500D02*
X155395800Y-86366200D01*
X146696800Y-110585200D02*
X145989600Y-109878000D01*
X146696800Y-111019500D02*
X146696800Y-110585200D01*
X139890500Y-101441100D02*
X140011400Y-101320200D01*
X139890500Y-109878000D02*
X139890500Y-101441100D01*
X130440400Y-91515100D02*
X130440400Y-93052700D01*
X134618300Y-87337200D02*
X130440400Y-91515100D01*
X134826700Y-87337200D02*
X134618300Y-87337200D01*
X138659600Y-83504300D02*
X134826700Y-87337200D01*
X138659600Y-83418700D02*
X138659600Y-83504300D01*
%TO.N,/SST.A12*%
X147600200Y-110519500D02*
X148503500Y-110519500D01*
X152327000Y-106531000D02*
X151326900Y-106531000D01*
X151326900Y-107327700D02*
X151326900Y-106531000D01*
X149703800Y-108950800D02*
X151326900Y-107327700D01*
X149703800Y-109319200D02*
X149703800Y-108950800D01*
X148503500Y-110519500D02*
X149703800Y-109319200D01*
%TO.N,/SST.A11*%
X147600200Y-110019500D02*
X146696800Y-110019500D01*
X146696800Y-108486200D02*
X146364400Y-108153800D01*
X146696800Y-110019500D02*
X146696800Y-108486200D01*
X150157200Y-107128700D02*
X150157200Y-107355600D01*
X151254900Y-106031000D02*
X150157200Y-107128700D01*
X152327000Y-106031000D02*
X151254900Y-106031000D01*
%TO.N,/SST.A10*%
X147600200Y-109519500D02*
X148503500Y-109519500D01*
X150940600Y-105531000D02*
X152327000Y-105531000D01*
X149303700Y-107167900D02*
X150940600Y-105531000D01*
X149303700Y-108850900D02*
X149303700Y-107167900D01*
X148635100Y-109519500D02*
X149303700Y-108850900D01*
X148503500Y-109519500D02*
X148635100Y-109519500D01*
%TO.N,/SST.A9*%
X147600200Y-109019500D02*
X148503500Y-109019500D01*
X152327000Y-104531000D02*
X151326900Y-104531000D01*
X148903600Y-106954300D02*
X151326900Y-104531000D01*
X148903600Y-108685200D02*
X148903600Y-106954300D01*
X148569300Y-109019500D02*
X148903600Y-108685200D01*
X148503500Y-109019500D02*
X148569300Y-109019500D01*
%TO.N,/SST.A8*%
X151232300Y-104031000D02*
X152327000Y-104031000D01*
X148503500Y-106759800D02*
X151232300Y-104031000D01*
X148503500Y-108519500D02*
X148503500Y-106759800D01*
X147600200Y-108519500D02*
X148503500Y-108519500D01*
%TO.N,/SST.WE*%
X156277000Y-92569600D02*
X156277000Y-99081000D01*
X156234100Y-92526700D02*
X156277000Y-92569600D01*
X173022300Y-114891700D02*
X173329300Y-115198700D01*
X171188800Y-114891700D02*
X173022300Y-114891700D01*
X141648500Y-97433800D02*
X141648500Y-101378900D01*
X173913900Y-99177500D02*
X172730500Y-99177500D01*
X176627200Y-101890800D02*
X173913900Y-99177500D01*
X176627200Y-115198700D02*
X176627200Y-101890800D01*
X165201600Y-96013400D02*
X167218000Y-93997000D01*
X145633300Y-102311800D02*
X145633300Y-101649400D01*
X144978900Y-102966200D02*
X145633300Y-102311800D01*
X144978900Y-106059400D02*
X144978900Y-102966200D01*
X145939000Y-107019500D02*
X144978900Y-106059400D01*
X147600200Y-107019500D02*
X145939000Y-107019500D01*
%TO.N,/SST.A18*%
X146401200Y-104519500D02*
X146395700Y-104514000D01*
X147600200Y-104519500D02*
X146401200Y-104519500D01*
X152327000Y-110531000D02*
X151326900Y-110531000D01*
X143406900Y-104514000D02*
X143406900Y-111710500D01*
X151326900Y-110976200D02*
X151022400Y-111280700D01*
X151326900Y-110531000D02*
X151326900Y-110976200D01*
%TO.N,/SST.A17*%
X145695100Y-104168600D02*
X145695100Y-105779800D01*
X146073500Y-103790200D02*
X145695100Y-104168600D01*
X146703600Y-103790200D02*
X146073500Y-103790200D01*
X146932900Y-104019500D02*
X146703600Y-103790200D01*
X147600200Y-104019500D02*
X146932900Y-104019500D01*
X153365600Y-110031000D02*
X153628100Y-109768500D01*
X152327000Y-110031000D02*
X153365600Y-110031000D01*
%TO.N,/SST.A7*%
X152327000Y-103531000D02*
X151326900Y-103531000D01*
X147600200Y-103519500D02*
X148503500Y-103519500D01*
X148515000Y-103531000D02*
X148503500Y-103519500D01*
X151326900Y-103531000D02*
X148515000Y-103531000D01*
%TO.N,/SST.A6*%
X152327000Y-103031000D02*
X151326900Y-103031000D01*
X147600200Y-103019500D02*
X148503500Y-103019500D01*
X148515000Y-103031000D02*
X148503500Y-103019500D01*
X151326900Y-103031000D02*
X148515000Y-103031000D01*
%TO.N,/SST.A5*%
X152327000Y-102531000D02*
X151326900Y-102531000D01*
X147600200Y-102519500D02*
X148503500Y-102519500D01*
X148515000Y-102531000D02*
X148503500Y-102519500D01*
X151326900Y-102531000D02*
X148515000Y-102531000D01*
%TO.N,/SST.A4*%
X152327000Y-102031000D02*
X151326900Y-102031000D01*
X151315400Y-102019500D02*
X147600200Y-102019500D01*
X151326900Y-102031000D02*
X151315400Y-102019500D01*
%TO.N,/SST.A3*%
X151315400Y-101519500D02*
X151326900Y-101531000D01*
X147600200Y-101519500D02*
X151315400Y-101519500D01*
X152327000Y-101531000D02*
X151326900Y-101531000D01*
%TO.N,/SST.A2*%
X147600200Y-101019500D02*
X148503500Y-101019500D01*
X154777000Y-98324700D02*
X154777000Y-99081000D01*
X154525000Y-98072700D02*
X154777000Y-98324700D01*
X152526900Y-98072700D02*
X154525000Y-98072700D01*
X146980800Y-92526600D02*
X152526900Y-98072700D01*
X146117300Y-92526600D02*
X146980800Y-92526600D01*
X145579200Y-93064700D02*
X146117300Y-92526600D01*
X145579200Y-95510800D02*
X145579200Y-93064700D01*
X148503500Y-98435100D02*
X145579200Y-95510800D01*
X148503500Y-101019500D02*
X148503500Y-98435100D01*
%TO.N,/SST.A1*%
X150115900Y-92919800D02*
X155277000Y-98080900D01*
X147940100Y-92919800D02*
X150115900Y-92919800D01*
X147106300Y-92086000D02*
X147940100Y-92919800D01*
X145946100Y-92086000D02*
X147106300Y-92086000D01*
X145179100Y-92853000D02*
X145946100Y-92086000D01*
X145179100Y-95820800D02*
X145179100Y-92853000D01*
X146696800Y-97338500D02*
X145179100Y-95820800D01*
X146696800Y-100519500D02*
X146696800Y-97338500D01*
X147600200Y-100519500D02*
X146696800Y-100519500D01*
X155277000Y-99081000D02*
X155277000Y-98080900D01*
%TO.N,/SST.A0*%
X155777000Y-100398400D02*
X155777000Y-99081000D01*
X155711800Y-100463600D02*
X155777000Y-100398400D01*
X132201500Y-91386100D02*
X135039100Y-88548500D01*
X132201500Y-92281700D02*
X132201500Y-91386100D01*
X129477600Y-95005600D02*
X132201500Y-92281700D01*
X129477600Y-96774200D02*
X129477600Y-95005600D01*
X127902500Y-98349300D02*
X129477600Y-96774200D01*
X127902500Y-100519500D02*
X127902500Y-98349300D01*
%TO.N,/SST.CE*%
X127902500Y-101019500D02*
X128805800Y-101019500D01*
X157906400Y-92410400D02*
X157906400Y-81433000D01*
X157277000Y-93039800D02*
X157906400Y-92410400D01*
X157277000Y-99081000D02*
X157277000Y-93039800D01*
X144642300Y-80661200D02*
X145575800Y-81594700D01*
X143433500Y-80661200D02*
X144642300Y-80661200D01*
X141582000Y-82512700D02*
X143433500Y-80661200D01*
X141582000Y-83842800D02*
X141582000Y-82512700D01*
X136650500Y-88774300D02*
X141582000Y-83842800D01*
X136650500Y-89058800D02*
X136650500Y-88774300D01*
X133505100Y-92204200D02*
X136650500Y-89058800D01*
X133505100Y-92675600D02*
X133505100Y-92204200D01*
X131336400Y-94844300D02*
X133505100Y-92675600D01*
X131336400Y-96302100D02*
X131336400Y-94844300D01*
X130784700Y-96853800D02*
X131336400Y-96302100D01*
X130784700Y-99040600D02*
X130784700Y-96853800D01*
X128805800Y-101019500D02*
X130784700Y-99040600D01*
%TO.N,/SST.OE*%
X127902500Y-102019500D02*
X128805800Y-102019500D01*
X156934200Y-92816700D02*
X156934200Y-83117800D01*
X156777000Y-92973900D02*
X156934200Y-92816700D01*
X156777000Y-99081000D02*
X156777000Y-92973900D01*
X142940400Y-82201600D02*
X142958700Y-82201600D01*
X142027100Y-83114900D02*
X142940400Y-82201600D01*
X142027100Y-83963500D02*
X142027100Y-83114900D01*
X137050600Y-88940000D02*
X142027100Y-83963500D01*
X137050600Y-89224500D02*
X137050600Y-88940000D01*
X133905200Y-92369900D02*
X137050600Y-89224500D01*
X133905200Y-92841300D02*
X133905200Y-92369900D01*
X131736500Y-95010000D02*
X133905200Y-92841300D01*
X131736500Y-96467800D02*
X131736500Y-95010000D01*
X131184800Y-97019500D02*
X131736500Y-96467800D01*
X131184800Y-99640500D02*
X131184800Y-97019500D01*
X128805800Y-102019500D02*
X131184800Y-99640500D01*
%TO.N,/AD0*%
X135366000Y-126447000D02*
X135366000Y-122256900D01*
X161545100Y-76473900D02*
X155879000Y-82140000D01*
X165502100Y-76473900D02*
X161545100Y-76473900D01*
X166897000Y-75079000D02*
X165502100Y-76473900D01*
X144545700Y-111820100D02*
X144545700Y-109143900D01*
X135366000Y-120999800D02*
X144545700Y-111820100D01*
X135366000Y-122256900D02*
X135366000Y-120999800D01*
X153468400Y-111031000D02*
X153651600Y-110847800D01*
X152327000Y-111031000D02*
X153468400Y-111031000D01*
X144545700Y-109143900D02*
X144545700Y-102152400D01*
X132136600Y-95673600D02*
X132436700Y-95373500D01*
X132136600Y-96633500D02*
X132136600Y-95673600D01*
X131584900Y-97185200D02*
X132136600Y-96633500D01*
X131584900Y-99828000D02*
X131584900Y-97185200D01*
X128893400Y-102519500D02*
X131584900Y-99828000D01*
X127902500Y-102519500D02*
X128893400Y-102519500D01*
X142930200Y-83626200D02*
X142930200Y-83201800D01*
X137450700Y-89105700D02*
X142930200Y-83626200D01*
X137450700Y-89390200D02*
X137450700Y-89105700D01*
X134305300Y-92535600D02*
X137450700Y-89390200D01*
X134305300Y-93007000D02*
X134305300Y-92535600D01*
X132436700Y-94875600D02*
X134305300Y-93007000D01*
X132436700Y-95373500D02*
X132436700Y-94875600D01*
%TO.N,/AD8*%
X156777000Y-114981000D02*
X156777000Y-115981100D01*
X147363000Y-126455000D02*
X147363000Y-122264900D01*
X147816000Y-121811900D02*
X147816000Y-121434800D01*
X147363000Y-122264900D02*
X147816000Y-121811900D01*
X150228400Y-119022400D02*
X147816000Y-121434800D01*
X153616000Y-119022400D02*
X150228400Y-119022400D01*
X154741900Y-117896500D02*
X153616000Y-119022400D01*
X155038400Y-117896500D02*
X154741900Y-117896500D01*
X156777000Y-116157900D02*
X155038400Y-117896500D01*
X156777000Y-115981100D02*
X156777000Y-116157900D01*
X127902500Y-103019500D02*
X126999100Y-103019500D01*
X126999100Y-104925300D02*
X126999100Y-103019500D01*
X126609200Y-105315200D02*
X126999100Y-104925300D01*
X125021900Y-105315200D02*
X126609200Y-105315200D01*
X124798800Y-105092100D02*
X125021900Y-105315200D01*
X124798800Y-103536500D02*
X124798800Y-105092100D01*
X154830000Y-75687000D02*
X154830000Y-75079000D01*
X140251400Y-90265600D02*
X154830000Y-75687000D01*
X140251400Y-90550100D02*
X140251400Y-90265600D01*
X137106000Y-93695500D02*
X140251400Y-90550100D01*
X137106000Y-94166900D02*
X137106000Y-93695500D01*
X135773800Y-95499100D02*
X137106000Y-94166900D01*
X135773800Y-96845700D02*
X135773800Y-95499100D01*
X135266900Y-97352600D02*
X135773800Y-96845700D01*
%TO.N,/AD1*%
X152327000Y-111531000D02*
X153327100Y-111531000D01*
X153327400Y-111531000D02*
X153644400Y-111848000D01*
X153327100Y-111531000D02*
X153327400Y-111531000D01*
X127902500Y-103519500D02*
X128805800Y-103519500D01*
X129173700Y-103151600D02*
X128805800Y-103519500D01*
X129251200Y-103151600D02*
X129173700Y-103151600D01*
X136861000Y-121568400D02*
X143832400Y-114597000D01*
X136861000Y-126447000D02*
X136861000Y-121568400D01*
X146627300Y-86437400D02*
X146942300Y-86437400D01*
X140643000Y-92421700D02*
X146627300Y-86437400D01*
X140643000Y-96424500D02*
X140643000Y-92421700D01*
X137629500Y-99438000D02*
X140643000Y-96424500D01*
X137629500Y-109173500D02*
X137629500Y-99438000D01*
%TO.N,/AD9*%
X148870000Y-126455000D02*
X148870000Y-122264900D01*
X156922400Y-113580600D02*
X156922400Y-113393200D01*
X157277000Y-113935200D02*
X156922400Y-113580600D01*
X157277000Y-114981000D02*
X157277000Y-113935200D01*
X151554500Y-119580400D02*
X148870000Y-122264900D01*
X153623800Y-119580400D02*
X151554500Y-119580400D01*
X154907600Y-118296600D02*
X153623800Y-119580400D01*
X155210600Y-118296600D02*
X154907600Y-118296600D01*
X157277000Y-116230200D02*
X155210600Y-118296600D01*
X157277000Y-114981000D02*
X157277000Y-116230200D01*
X128845700Y-104019500D02*
X127902500Y-104019500D01*
X128945600Y-103919600D02*
X128845700Y-104019500D01*
X129478700Y-103919600D02*
X128945600Y-103919600D01*
X130263200Y-103135100D02*
X129478700Y-103919600D01*
X130263200Y-102317500D02*
X130263200Y-103135100D01*
X153444000Y-76507200D02*
X153444000Y-73570000D01*
X139851300Y-90099900D02*
X153444000Y-76507200D01*
X139851300Y-90384400D02*
X139851300Y-90099900D01*
X136705900Y-93529800D02*
X139851300Y-90384400D01*
X136705900Y-94001200D02*
X136705900Y-93529800D01*
X135296800Y-95410300D02*
X136705900Y-94001200D01*
X135296800Y-96332500D02*
X135296800Y-95410300D01*
X134537200Y-97092100D02*
X135296800Y-96332500D01*
X134537200Y-98770400D02*
X134537200Y-97092100D01*
X134919800Y-99153000D02*
X134537200Y-98770400D01*
%TO.N,/AD2*%
X152327000Y-112031000D02*
X151326900Y-112031000D01*
X138368000Y-126457000D02*
X138368000Y-122266900D01*
X127902500Y-104519500D02*
X128805800Y-104519500D01*
X149341900Y-112873600D02*
X149344500Y-112871000D01*
X147008500Y-112873600D02*
X149341900Y-112873600D01*
X138368000Y-121514100D02*
X147008500Y-112873600D01*
X138368000Y-122266900D02*
X138368000Y-121514100D01*
X150184500Y-112031000D02*
X151326900Y-112031000D01*
X149344500Y-112871000D02*
X150184500Y-112031000D01*
X130202000Y-104326100D02*
X130379500Y-104148600D01*
X129105000Y-104326100D02*
X130202000Y-104326100D01*
X128911600Y-104519500D02*
X129105000Y-104326100D01*
X128805800Y-104519500D02*
X128911600Y-104519500D01*
X143717900Y-83404300D02*
X143717900Y-81370000D01*
X137850800Y-89271400D02*
X143717900Y-83404300D01*
X137850800Y-89555900D02*
X137850800Y-89271400D01*
X134705400Y-92701300D02*
X137850800Y-89555900D01*
X134705400Y-93172700D02*
X134705400Y-92701300D01*
X133136800Y-94741300D02*
X134705400Y-93172700D01*
X133136800Y-95663500D02*
X133136800Y-94741300D01*
X132536700Y-96263600D02*
X133136800Y-95663500D01*
X132536700Y-96799200D02*
X132536700Y-96263600D01*
X131985000Y-97350900D02*
X132536700Y-96799200D01*
X131985000Y-101997800D02*
X131985000Y-97350900D01*
X130379500Y-103603300D02*
X131985000Y-101997800D01*
X130379500Y-104148600D02*
X130379500Y-103603300D01*
%TO.N,/AD10*%
X158777000Y-114981000D02*
X158777000Y-115981100D01*
X150377000Y-126455000D02*
X150377000Y-122264900D01*
X154213600Y-119980500D02*
X155197400Y-118996700D01*
X152661400Y-119980500D02*
X154213600Y-119980500D01*
X150377000Y-122264900D02*
X152661400Y-119980500D01*
X158827100Y-116031200D02*
X158777000Y-115981100D01*
X158827100Y-116741700D02*
X158827100Y-116031200D01*
X158452700Y-117116100D02*
X158827100Y-116741700D01*
X157078000Y-117116100D02*
X158452700Y-117116100D01*
X155197400Y-118996700D02*
X157078000Y-117116100D01*
X132629400Y-103639700D02*
X131941900Y-102952200D01*
X132629400Y-104449900D02*
X132629400Y-103639700D01*
X130655700Y-106423600D02*
X132629400Y-104449900D01*
X131079600Y-103814500D02*
X131941900Y-102952200D01*
X131079600Y-104438600D02*
X131079600Y-103814500D01*
X130669500Y-104848700D02*
X131079600Y-104438600D01*
X130089600Y-104848700D02*
X130669500Y-104848700D01*
X129967100Y-104726200D02*
X130089600Y-104848700D01*
X129270700Y-104726200D02*
X129967100Y-104726200D01*
X128977400Y-105019500D02*
X129270700Y-104726200D01*
X127902500Y-105019500D02*
X128977400Y-105019500D01*
X144422300Y-83265700D02*
X144422300Y-82079800D01*
X138250900Y-89437100D02*
X144422300Y-83265700D01*
X138250900Y-89721600D02*
X138250900Y-89437100D01*
X135105500Y-92867000D02*
X138250900Y-89721600D01*
X135105500Y-93338400D02*
X135105500Y-92867000D01*
X133536900Y-94907000D02*
X135105500Y-93338400D01*
X133536900Y-95829200D02*
X133536900Y-94907000D01*
X132936800Y-96429300D02*
X133536900Y-95829200D01*
X132936800Y-96964900D02*
X132936800Y-96429300D01*
X132385100Y-97516600D02*
X132936800Y-96964900D01*
X132385100Y-102509000D02*
X132385100Y-97516600D01*
X131941900Y-102952200D02*
X132385100Y-102509000D01*
%TO.N,/AD3*%
X153661300Y-83540400D02*
X153661300Y-80443000D01*
X148132500Y-89069200D02*
X153661300Y-83540400D01*
X145310800Y-89069200D02*
X148132500Y-89069200D01*
X143407500Y-90972500D02*
X145310800Y-89069200D01*
X143407500Y-92645200D02*
X143407500Y-90972500D01*
X143080300Y-92972400D02*
X143407500Y-92645200D01*
X143080300Y-101621500D02*
X143080300Y-92972400D01*
X141217300Y-103484500D02*
X143080300Y-101621500D01*
X141217300Y-111411000D02*
X141217300Y-103484500D01*
X140066900Y-112561400D02*
X141217300Y-111411000D01*
X146645100Y-113875800D02*
X147979500Y-113875800D01*
X139862000Y-120658900D02*
X146645100Y-113875800D01*
X139862000Y-126452000D02*
X139862000Y-120658900D01*
X151033100Y-112531000D02*
X152327000Y-112531000D01*
X150979900Y-112477800D02*
X151033100Y-112531000D01*
X150433600Y-112477800D02*
X150979900Y-112477800D01*
X150140300Y-112771100D02*
X150433600Y-112477800D01*
X150140300Y-113161000D02*
X150140300Y-112771100D01*
X149425500Y-113875800D02*
X150140300Y-113161000D01*
X147979500Y-113875800D02*
X149425500Y-113875800D01*
X129478900Y-105519500D02*
X127902500Y-105519500D01*
X129555900Y-105442500D02*
X129478900Y-105519500D01*
%TO.N,/AD11*%
X151860000Y-126455000D02*
X151860000Y-122264900D01*
X159277000Y-114981000D02*
X159277000Y-115981100D01*
X127902500Y-106019500D02*
X128805800Y-106019500D01*
X152756400Y-122264900D02*
X151860000Y-122264900D01*
X155264300Y-119757000D02*
X152756400Y-122264900D01*
X155558800Y-119757000D02*
X155264300Y-119757000D01*
X157098300Y-118217500D02*
X155558800Y-119757000D01*
X157522300Y-118217500D02*
X157098300Y-118217500D01*
X157927500Y-118217500D02*
X157522300Y-118217500D01*
X159277000Y-116868000D02*
X157927500Y-118217500D01*
X159277000Y-115981100D02*
X159277000Y-116868000D01*
X131929200Y-104154800D02*
X131929200Y-103978200D01*
X129941400Y-106142600D02*
X131929200Y-104154800D01*
X128928900Y-106142600D02*
X129941400Y-106142600D01*
X128805800Y-106019500D02*
X128928900Y-106142600D01*
X150423000Y-78962400D02*
X150423000Y-73571000D01*
X139451200Y-89934200D02*
X150423000Y-78962400D01*
X139451200Y-90218700D02*
X139451200Y-89934200D01*
X136305800Y-93364100D02*
X139451200Y-90218700D01*
X136305800Y-93835500D02*
X136305800Y-93364100D01*
X134896700Y-95244600D02*
X136305800Y-93835500D01*
X134896700Y-96166800D02*
X134896700Y-95244600D01*
X134137100Y-96926400D02*
X134896700Y-96166800D01*
X134137100Y-103813900D02*
X134137100Y-96926400D01*
D29*
%TO.N,/VCC*%
X163277000Y-99081000D02*
X163777000Y-99081000D01*
D32*
X151155000Y-115862000D02*
X151155000Y-115862500D01*
D29*
X163777000Y-99081000D02*
X164277000Y-99081000D01*
X166691000Y-110531000D02*
X166690000Y-110532000D01*
X168227000Y-110531000D02*
X166691000Y-110531000D01*
D32*
X127859000Y-126447000D02*
X127859000Y-122106900D01*
X125835000Y-106539000D02*
X125835000Y-107489100D01*
X174015000Y-106072500D02*
X174015000Y-103958000D01*
X173056500Y-107031000D02*
X174015000Y-106072500D01*
D29*
X154277000Y-114981000D02*
X154116800Y-114981000D01*
X152036000Y-114981000D02*
X151155000Y-115862000D01*
X154116800Y-114981000D02*
X152036000Y-114981000D01*
X157777000Y-114981000D02*
X157777000Y-113557000D01*
X157777000Y-113557000D02*
X157776000Y-113556000D01*
X173991000Y-107031000D02*
X174016000Y-107056000D01*
X173056500Y-107031000D02*
X173991000Y-107031000D01*
D32*
X141551000Y-94553000D02*
X141551000Y-95653100D01*
X163777000Y-99081000D02*
X163777000Y-97743900D01*
X174054000Y-113521000D02*
X174054000Y-112570900D01*
X172534100Y-113363400D02*
X172534100Y-113525000D01*
X173326600Y-112570900D02*
X172534100Y-113363400D01*
X172533200Y-111777500D02*
X173326600Y-112570900D01*
X172533200Y-110458900D02*
X172533200Y-111777500D01*
X172189900Y-110115600D02*
X172533200Y-110458900D01*
X173326600Y-112570900D02*
X174054000Y-112570900D01*
X164460200Y-97060700D02*
X166377000Y-97060700D01*
X163777000Y-97743900D02*
X164460200Y-97060700D01*
X166377200Y-97060900D02*
X166377200Y-98980800D01*
X166377000Y-97060700D02*
X166377200Y-97060900D01*
D33*
X166377200Y-98980800D02*
X166277000Y-99081000D01*
D32*
X175720000Y-79909000D02*
X174619900Y-79909000D01*
X174619900Y-79909000D02*
X174476000Y-79909000D01*
X174476000Y-79909000D02*
X174476000Y-73571000D01*
X174476000Y-89454400D02*
X174476000Y-79909000D01*
X173728400Y-90202000D02*
X174476000Y-89454400D01*
X173022400Y-90202000D02*
X173728400Y-90202000D01*
X166377000Y-96847400D02*
X173022400Y-90202000D01*
X166377000Y-97060700D02*
X166377000Y-96847400D01*
D29*
X127903000Y-106520000D02*
X127902000Y-106520000D01*
X125854000Y-106520000D02*
X125835000Y-106539000D01*
X127902000Y-106520000D02*
X125854000Y-106520000D01*
D34*
X127902000Y-106520000D02*
X127902500Y-106519500D01*
D29*
X154277000Y-99081000D02*
X154048900Y-99081000D01*
X152327000Y-107031000D02*
X154329000Y-107031000D01*
X154329000Y-107031000D02*
X154330000Y-107032000D01*
D32*
X155150400Y-106209600D02*
X154329000Y-107031000D01*
X155150400Y-101332100D02*
X155150400Y-106209600D01*
X154048900Y-100230600D02*
X154048900Y-99081000D01*
X155150400Y-101332100D02*
X154048900Y-100230600D01*
X171641300Y-113525000D02*
X172534100Y-113525000D01*
D29*
X166277000Y-113675000D02*
X166277500Y-113674500D01*
X166277000Y-114981000D02*
X166277000Y-113675000D01*
X166277500Y-113674500D02*
X166278000Y-113674000D01*
D32*
X166277500Y-113674500D02*
X166277500Y-110812000D01*
X166410000Y-110812000D02*
X166690000Y-110532000D01*
X166277500Y-110812000D02*
X166410000Y-110812000D01*
X159505700Y-110812000D02*
X166277500Y-110812000D01*
X157777000Y-112540700D02*
X159505700Y-110812000D01*
X156530600Y-112540700D02*
X157777000Y-112540700D01*
X156169400Y-112901900D02*
X156530600Y-112540700D01*
X155430500Y-112901900D02*
X156169400Y-112901900D01*
X154116800Y-114215600D02*
X155430500Y-112901900D01*
X154116800Y-114981000D02*
X154116800Y-114215600D01*
X157777000Y-112540700D02*
X157777000Y-113557000D01*
X159593600Y-101332100D02*
X159686100Y-101239600D01*
X155150400Y-101332100D02*
X159593600Y-101332100D01*
X141551000Y-92503900D02*
X142298600Y-91756300D01*
X141551000Y-94553000D02*
X141551000Y-92503900D01*
X141551000Y-96294500D02*
X141551000Y-95653100D01*
X138801000Y-99044500D02*
X141551000Y-96294500D01*
X138801000Y-110170800D02*
X138801000Y-99044500D01*
X128233300Y-120738500D02*
X138801000Y-110170800D01*
X125468400Y-117973700D02*
X128233300Y-120738500D01*
X125468400Y-107855700D02*
X125468400Y-117973700D01*
X125835000Y-107489100D02*
X125468400Y-107855700D01*
X128233300Y-121732600D02*
X127859000Y-122106900D01*
X128233300Y-120738600D02*
X128233300Y-121732600D01*
X128233300Y-120738500D02*
X128233300Y-120738600D01*
X171641300Y-113525000D02*
X171434000Y-113525000D01*
X169185100Y-115267600D02*
X166563600Y-115267600D01*
X170333900Y-114118800D02*
X169185100Y-115267600D01*
X170333900Y-113525000D02*
X170333900Y-114118800D01*
D33*
X166563600Y-115267600D02*
X166277000Y-114981000D01*
D32*
X171434000Y-113525000D02*
X170333900Y-113525000D01*
X170605700Y-107317800D02*
X170605700Y-107031000D01*
D29*
X168227000Y-107031000D02*
X170605700Y-107031000D01*
X170605700Y-107031000D02*
X173056500Y-107031000D01*
D30*
%TO.N,/AD4*%
X129792600Y-107019500D02*
X127902500Y-107019500D01*
X141361000Y-126456000D02*
X141361000Y-122265900D01*
X146722700Y-116904200D02*
X141361000Y-122265900D01*
X146722700Y-116832900D02*
X146722700Y-116904200D01*
X155178900Y-80804300D02*
X160904200Y-75079000D01*
X155178900Y-82682600D02*
X155178900Y-80804300D01*
X148340300Y-89521200D02*
X155178900Y-82682600D01*
X145424600Y-89521200D02*
X148340300Y-89521200D01*
X143807600Y-91138200D02*
X145424600Y-89521200D01*
X143807600Y-92810900D02*
X143807600Y-91138200D01*
X143480400Y-93138100D02*
X143807600Y-92810900D01*
X143480400Y-101787200D02*
X143480400Y-93138100D01*
X141638800Y-103628800D02*
X143480400Y-101787200D01*
X141638800Y-113462900D02*
X141638800Y-103628800D01*
X153542200Y-116832900D02*
X146722700Y-116832900D01*
X154079000Y-116296100D02*
X153542200Y-116832900D01*
X154161500Y-116296100D02*
X154079000Y-116296100D01*
X154777000Y-115680600D02*
X154161500Y-116296100D01*
X154777000Y-114981000D02*
X154777000Y-115680600D01*
X146722700Y-116832900D02*
X146722700Y-114794500D01*
%TO.N,/AD12*%
X153362000Y-126455000D02*
X153362000Y-122264900D01*
X128844200Y-107519500D02*
X129116800Y-107792100D01*
X127902500Y-107519500D02*
X128844200Y-107519500D01*
X157310500Y-119419500D02*
X156886200Y-119419500D01*
X159777000Y-116953000D02*
X157310500Y-119419500D01*
X159777000Y-114981000D02*
X159777000Y-116953000D01*
X156148600Y-120157100D02*
X156886200Y-119419500D01*
X155430000Y-120157100D02*
X156148600Y-120157100D01*
X153362000Y-122225100D02*
X155430000Y-120157100D01*
X153362000Y-122264900D02*
X153362000Y-122225100D01*
X148878000Y-79941600D02*
X148878000Y-75078000D01*
X139051100Y-89768500D02*
X148878000Y-79941600D01*
X139051100Y-90053000D02*
X139051100Y-89768500D01*
X135905700Y-93198400D02*
X139051100Y-90053000D01*
X135905700Y-93669800D02*
X135905700Y-93198400D01*
X134496600Y-95078900D02*
X135905700Y-93669800D01*
X134496600Y-96001100D02*
X134496600Y-95078900D01*
X133737000Y-96760700D02*
X134496600Y-96001100D01*
X133737000Y-97296300D02*
X133737000Y-96760700D01*
X133429600Y-97603700D02*
X133737000Y-97296300D01*
X133429600Y-107889900D02*
X133429600Y-97603700D01*
X132283400Y-109036100D02*
X133429600Y-107889900D01*
%TO.N,/AD5*%
X142880000Y-126456000D02*
X142880000Y-122265900D01*
X155277000Y-115746800D02*
X155277000Y-114981000D01*
X154327600Y-116696200D02*
X155277000Y-115746800D01*
X154244700Y-116696200D02*
X154327600Y-116696200D01*
X153636500Y-117304400D02*
X154244700Y-116696200D01*
X148330600Y-117304400D02*
X153636500Y-117304400D01*
X146639600Y-118995400D02*
X148330600Y-117304400D01*
X126723700Y-108019500D02*
X126680000Y-108063200D01*
X127902500Y-108019500D02*
X126723700Y-108019500D01*
X159396100Y-75287200D02*
X159396100Y-73570900D01*
X156702900Y-77980400D02*
X159396100Y-75287200D01*
X154408900Y-77980400D02*
X156702900Y-77980400D01*
X141451700Y-90937600D02*
X154408900Y-77980400D01*
X141451700Y-91047200D02*
X141451700Y-90937600D01*
X138706400Y-93792500D02*
X141451700Y-91047200D01*
X138706400Y-94829700D02*
X138706400Y-93792500D01*
X137206500Y-96329600D02*
X138706400Y-94829700D01*
X137206500Y-108599500D02*
X137206500Y-96329600D01*
X133722500Y-112083500D02*
X137206500Y-108599500D01*
X133722500Y-113582600D02*
X133722500Y-112083500D01*
X146150500Y-118995400D02*
X142880000Y-122265900D01*
X146639600Y-118995400D02*
X146150500Y-118995400D01*
%TO.N,/AD13*%
X160277000Y-114981000D02*
X160277000Y-115981100D01*
X127902500Y-108519500D02*
X128805800Y-108519500D01*
X130834300Y-109669400D02*
X130834300Y-110732600D01*
X129684400Y-108519500D02*
X130834300Y-109669400D01*
X128805800Y-108519500D02*
X129684400Y-108519500D01*
X154868000Y-121709400D02*
X154868000Y-126455000D01*
X155458800Y-121118600D02*
X154868000Y-121709400D01*
X156211200Y-121118600D02*
X155458800Y-121118600D01*
X160277000Y-117052800D02*
X156211200Y-121118600D01*
X160277000Y-115981100D02*
X160277000Y-117052800D01*
X147409000Y-80844800D02*
X147409000Y-73572000D01*
X138651000Y-89602800D02*
X147409000Y-80844800D01*
X138651000Y-89887300D02*
X138651000Y-89602800D01*
X135505600Y-93032700D02*
X138651000Y-89887300D01*
X135505600Y-93504100D02*
X135505600Y-93032700D01*
X134096500Y-94913200D02*
X135505600Y-93504100D01*
X134096500Y-95835400D02*
X134096500Y-94913200D01*
X133336900Y-96595000D02*
X134096500Y-95835400D01*
X133336900Y-97130600D02*
X133336900Y-96595000D01*
X133029500Y-97438000D02*
X133336900Y-97130600D01*
X133029500Y-105174400D02*
X133029500Y-97438000D01*
X129684400Y-108519500D02*
X133029500Y-105174400D01*
%TO.N,/AD6*%
X127902500Y-109019500D02*
X128805800Y-109019500D01*
X155777000Y-114981000D02*
X155777000Y-115981100D01*
X148931500Y-118128800D02*
X148496400Y-118563900D01*
X153377900Y-118128800D02*
X148931500Y-118128800D01*
X154410400Y-117096300D02*
X153377900Y-118128800D01*
X154661800Y-117096300D02*
X154410400Y-117096300D01*
X155777000Y-115981100D02*
X154661800Y-117096300D01*
X129328300Y-109542000D02*
X128805800Y-109019500D01*
X129328300Y-110216600D02*
X129328300Y-109542000D01*
X130784200Y-111672500D02*
X129328300Y-110216600D01*
X131314500Y-111672500D02*
X130784200Y-111672500D01*
X155999500Y-76923500D02*
X157844000Y-75079000D01*
X154866600Y-76923500D02*
X155999500Y-76923500D01*
X141051600Y-90738500D02*
X154866600Y-76923500D01*
X141051600Y-90881500D02*
X141051600Y-90738500D01*
X137964800Y-93968300D02*
X141051600Y-90881500D01*
X137964800Y-94722700D02*
X137964800Y-93968300D01*
X136806300Y-95881200D02*
X137964800Y-94722700D01*
X136806300Y-108433800D02*
X136806300Y-95881200D01*
X132898900Y-112341200D02*
X136806300Y-108433800D01*
X132898900Y-112825400D02*
X132898900Y-112341200D01*
X147102300Y-119958000D02*
X148496400Y-118563900D01*
X146254800Y-119958000D02*
X147102300Y-119958000D01*
X144363000Y-121849800D02*
X146254800Y-119958000D01*
X144363000Y-126456000D02*
X144363000Y-121849800D01*
%TO.N,/AD14*%
X127902500Y-109519500D02*
X126999100Y-109519500D01*
X126999100Y-109480300D02*
X126999100Y-109519500D01*
X126687200Y-109168400D02*
X126999100Y-109480300D01*
X156775000Y-121235800D02*
X156775000Y-121867800D01*
X160777000Y-117233800D02*
X156775000Y-121235800D01*
X160777000Y-114981000D02*
X160777000Y-117233800D01*
X156377900Y-122264900D02*
X156363000Y-122264900D01*
X156775000Y-121867800D02*
X156377900Y-122264900D01*
X156363000Y-126455000D02*
X156363000Y-122264900D01*
X145861000Y-76718400D02*
X145861000Y-75080000D01*
X141096500Y-81482900D02*
X145861000Y-76718400D01*
X141096500Y-83762500D02*
X141096500Y-81482900D01*
X136250400Y-88608600D02*
X141096500Y-83762500D01*
X136250400Y-88893100D02*
X136250400Y-88608600D01*
X133105000Y-92038500D02*
X136250400Y-88893100D01*
X133105000Y-92509900D02*
X133105000Y-92038500D01*
X130636300Y-94978600D02*
X133105000Y-92509900D01*
X130636300Y-96012100D02*
X130636300Y-94978600D01*
%TO.N,/AD7*%
X127902500Y-110019500D02*
X128805800Y-110019500D01*
X156277000Y-116077000D02*
X156277000Y-114981000D01*
X154857600Y-117496400D02*
X156277000Y-116077000D01*
X154576200Y-117496400D02*
X154857600Y-117496400D01*
X153496400Y-118576200D02*
X154576200Y-117496400D01*
X149559700Y-118576200D02*
X153496400Y-118576200D01*
X145870000Y-122265900D02*
X149559700Y-118576200D01*
X145870000Y-122365400D02*
X145870000Y-122265900D01*
X145870000Y-126456000D02*
X145870000Y-122365400D01*
X128805800Y-110311500D02*
X131241000Y-112746600D01*
X128805800Y-110019500D02*
X128805800Y-110311500D01*
X156379800Y-75268800D02*
X156379800Y-73570900D01*
X155266700Y-76381900D02*
X156379800Y-75268800D01*
X154842300Y-76381900D02*
X155266700Y-76381900D01*
X140651500Y-90572700D02*
X154842300Y-76381900D01*
X140651500Y-90715800D02*
X140651500Y-90572700D01*
X137564700Y-93802600D02*
X140651500Y-90715800D01*
X137564700Y-94557000D02*
X137564700Y-93802600D01*
X136406200Y-95715500D02*
X137564700Y-94557000D01*
X136406200Y-104913400D02*
X136406200Y-95715500D01*
X135156400Y-106163200D02*
X136406200Y-104913400D01*
X135156400Y-106729000D02*
X135156400Y-106163200D01*
X133022300Y-108863100D02*
X135156400Y-106729000D01*
X133022300Y-110965300D02*
X133022300Y-108863100D01*
X131241000Y-112746600D02*
X133022300Y-110965300D01*
X131241000Y-112746700D02*
X131241000Y-116460700D01*
X131241000Y-112746600D02*
X131241000Y-112746700D01*
X145697600Y-122265900D02*
X145355600Y-121923900D01*
X145870000Y-122265900D02*
X145697600Y-122265900D01*
%TO.N,/AD15*%
X157870000Y-121130800D02*
X158011400Y-120989400D01*
X157870000Y-126455000D02*
X157870000Y-121130800D01*
X161277000Y-116131900D02*
X161277000Y-114981000D01*
X161177100Y-116231800D02*
X161277000Y-116131900D01*
X161177100Y-117823700D02*
X161177100Y-116231800D01*
X158011400Y-120989400D02*
X161177100Y-117823700D01*
X126647900Y-110459400D02*
X126419800Y-110231300D01*
X127842400Y-110459400D02*
X126647900Y-110459400D01*
X127902500Y-110519500D02*
X127842400Y-110459400D01*
X144393000Y-77620500D02*
X144393000Y-73570000D01*
X140696300Y-81317200D02*
X144393000Y-77620500D01*
X140696300Y-83596900D02*
X140696300Y-81317200D01*
X135850300Y-88442900D02*
X140696300Y-83596900D01*
X135850300Y-88727400D02*
X135850300Y-88442900D01*
X132704900Y-91872800D02*
X135850300Y-88727400D01*
X132704900Y-92344200D02*
X132704900Y-91872800D01*
X129936100Y-95113000D02*
X132704900Y-92344200D01*
X129936100Y-97679500D02*
X129936100Y-95113000D01*
D29*
%TO.N,/GND*%
X150755000Y-113031000D02*
X150752000Y-113028000D01*
X152327000Y-113031000D02*
X150755000Y-113031000D01*
X127903000Y-101519000D02*
X127902000Y-101519000D01*
D34*
X127902000Y-101519000D02*
X127902500Y-101519500D01*
D29*
X168227000Y-113607000D02*
X168225000Y-113609000D01*
D32*
X168227000Y-113607000D02*
X168227000Y-113786500D01*
D29*
X168227000Y-108031000D02*
X169911000Y-108031000D01*
D32*
X174017000Y-109080000D02*
X174017000Y-108742500D01*
X174017000Y-108742500D02*
X174017000Y-108129900D01*
D29*
X168227000Y-113031000D02*
X168227000Y-113607000D01*
X152327000Y-105031000D02*
X153602500Y-105031000D01*
D32*
X153214200Y-100930800D02*
X152427200Y-100930800D01*
X153602500Y-101319100D02*
X153214200Y-100930800D01*
X153602500Y-105031000D02*
X153602500Y-101319100D01*
D33*
X152427200Y-100930800D02*
X152327000Y-101031000D01*
D29*
X158774000Y-99790000D02*
X158774000Y-100310500D01*
X158777000Y-99787000D02*
X158774000Y-99790000D01*
X158777000Y-99081000D02*
X158777000Y-99787000D01*
X168227000Y-100417000D02*
X168226000Y-100416000D01*
X168227000Y-101031000D02*
X168227000Y-100417000D01*
D33*
X152040400Y-100744400D02*
X152327000Y-101031000D01*
D32*
X147342100Y-96046100D02*
X152040400Y-100744400D01*
X147342100Y-94553500D02*
X147342100Y-96046100D01*
X146392000Y-94553500D02*
X147342100Y-94553500D01*
X169967000Y-79273500D02*
X170917100Y-79273500D01*
D29*
X158277000Y-114981000D02*
X158277000Y-116436000D01*
D31*
X170276000Y-85817000D02*
X171317000Y-85817000D01*
X171517200Y-85483000D02*
X171517200Y-85765800D01*
D29*
X161777000Y-114981000D02*
X161777000Y-116410000D01*
D32*
X158174600Y-116436000D02*
X158124800Y-116386200D01*
X158277000Y-116436000D02*
X158174600Y-116436000D01*
X146392000Y-94553500D02*
X146392000Y-93453400D01*
X174562000Y-126454000D02*
X174562000Y-124283900D01*
D34*
X127893400Y-111028600D02*
X127902000Y-111020000D01*
X126848900Y-111028600D02*
X127893400Y-111028600D01*
D32*
X174562000Y-124283900D02*
X174562000Y-121953900D01*
X126798800Y-111078700D02*
X126848900Y-111028600D01*
X126798800Y-115313600D02*
X126798800Y-111078700D01*
D29*
X154327000Y-109031000D02*
X154330000Y-109028000D01*
X152327000Y-109031000D02*
X154327000Y-109031000D01*
D32*
X171317000Y-85817000D02*
X171466000Y-85817000D01*
X171466000Y-85817000D02*
X171517200Y-85765800D01*
X171764900Y-86115900D02*
X171764900Y-87702700D01*
X171466000Y-85817000D02*
X171764900Y-86115900D01*
X154330000Y-109028000D02*
X154557300Y-109028000D01*
D29*
X127011000Y-101519000D02*
X125917000Y-102613000D01*
X127902000Y-101519000D02*
X127011000Y-101519000D01*
X125834000Y-102696000D02*
X125834000Y-104515000D01*
X125917000Y-102613000D02*
X125834000Y-102696000D01*
D32*
X148605100Y-69299900D02*
X149486000Y-69299900D01*
X147904200Y-68599000D02*
X148605100Y-69299900D01*
X141637000Y-68599000D02*
X147904200Y-68599000D01*
X149486000Y-70750000D02*
X149486000Y-69299900D01*
D29*
X169912000Y-106031000D02*
X169914000Y-106029000D01*
X168227000Y-106031000D02*
X169912000Y-106031000D01*
D34*
X127902500Y-111020000D02*
X127902500Y-111019500D01*
D29*
X127903000Y-111020000D02*
X127902500Y-111020000D01*
X127902500Y-111020000D02*
X127902000Y-111020000D01*
D32*
X153447800Y-113132400D02*
X153447800Y-113655400D01*
X153641400Y-113132400D02*
X153447800Y-113132400D01*
X154557300Y-112216500D02*
X153641400Y-113132400D01*
X154557300Y-109028000D02*
X154557300Y-112216500D01*
X153416600Y-113132400D02*
X153315200Y-113031000D01*
X153447800Y-113132400D02*
X153416600Y-113132400D01*
D33*
X153315200Y-113031000D02*
X152327000Y-113031000D01*
D32*
X175719000Y-77885000D02*
X175719000Y-78835100D01*
X176446400Y-78835100D02*
X175719000Y-78835100D01*
X176827500Y-79216200D02*
X176446400Y-78835100D01*
X176827500Y-88342000D02*
X176827500Y-79216200D01*
X175088500Y-90081000D02*
X176827500Y-88342000D01*
X171517200Y-79873600D02*
X170917100Y-79273500D01*
X171517200Y-85483000D02*
X171517200Y-79873600D01*
X170494900Y-95393000D02*
X170330000Y-95228100D01*
X170494900Y-96110000D02*
X170494900Y-95393000D01*
X135401700Y-85149700D02*
X134735500Y-85149700D01*
X127844500Y-78258700D02*
X134735500Y-85149700D01*
X127844500Y-75079000D02*
X127844500Y-78258700D01*
X160738100Y-102847200D02*
X160738100Y-100359600D01*
X154557300Y-109028000D02*
X160738100Y-102847200D01*
X160689000Y-100310500D02*
X158774000Y-100310500D01*
X160738100Y-100359600D02*
X160689000Y-100310500D01*
X164777000Y-100231400D02*
X164777000Y-100231300D01*
X160866300Y-100231400D02*
X164777000Y-100231400D01*
X160738100Y-100359600D02*
X160866300Y-100231400D01*
D33*
X164777000Y-100231300D02*
X164777000Y-99081000D01*
D32*
X173545800Y-119088800D02*
X171962800Y-119088800D01*
X173545800Y-116321800D02*
X173545800Y-119088800D01*
X175188900Y-114678700D02*
X173545800Y-116321800D01*
X175188900Y-109914400D02*
X175188900Y-114678700D01*
X174017000Y-108742500D02*
X175188900Y-109914400D01*
X173545800Y-120937700D02*
X174562000Y-121953900D01*
X173545800Y-119088800D02*
X173545800Y-120937700D01*
X172945000Y-96110000D02*
X170494900Y-96110000D01*
X146392000Y-93453400D02*
X146392000Y-93287600D01*
X161727200Y-116459800D02*
X161777000Y-116410000D01*
X161727200Y-118476000D02*
X161727200Y-116459800D01*
X161468900Y-118734300D02*
X161727200Y-118476000D01*
X161468900Y-118960200D02*
X161468900Y-118734300D01*
X125917000Y-93968200D02*
X125917000Y-102613000D01*
X134735500Y-85149700D02*
X125917000Y-93968200D01*
X150752000Y-114242500D02*
X150752000Y-113028000D01*
X150081100Y-114913400D02*
X150752000Y-114242500D01*
X150081100Y-115863500D02*
X150081100Y-114913400D01*
X149131000Y-115863500D02*
X150081100Y-115863500D01*
X170995900Y-108129900D02*
X174017000Y-108129900D01*
X170957900Y-108167900D02*
X170995900Y-108129900D01*
X170047900Y-108167900D02*
X170957900Y-108167900D01*
X169911000Y-108031000D02*
X170047900Y-108167900D01*
X172997000Y-102946000D02*
X175114000Y-102946000D01*
X169914000Y-106029000D02*
X172997000Y-102946000D01*
X174748600Y-108129900D02*
X174017000Y-108129900D01*
X175116100Y-107762400D02*
X174748600Y-108129900D01*
X175116100Y-102948100D02*
X175116100Y-107762400D01*
X175114000Y-102946000D02*
X175116100Y-102948100D01*
X170045400Y-98596600D02*
X168226000Y-100416000D01*
X170494900Y-98596600D02*
X170045400Y-98596600D01*
X171931500Y-100033200D02*
X170494900Y-98596600D01*
X173991500Y-100033200D02*
X171931500Y-100033200D01*
X175114200Y-101155900D02*
X173991500Y-100033200D01*
X175114200Y-102945800D02*
X175114200Y-101155900D01*
X175114000Y-102946000D02*
X175114200Y-102945800D01*
X170494900Y-98596600D02*
X170494900Y-96110000D01*
D30*
%TO.N,/SST.A16*%
X127902500Y-112019500D02*
X128805800Y-112019500D01*
X128805800Y-112019500D02*
X128805800Y-115128900D01*
X144918800Y-112473300D02*
X137583500Y-119808600D01*
X148615600Y-112473300D02*
X144918800Y-112473300D01*
X151557900Y-109531000D02*
X148615600Y-112473300D01*
X152327000Y-109531000D02*
X151557900Y-109531000D01*
%TD*%
M02*
